<svg version="1.0" id="Layer_1" xmlns="http://www.w3.org/2000/svg" xmlns:xlink="http://www.w3.org/1999/xlink" x="0px" y="0px"
	 viewBox="0 0 81.7 72.3" style="enable-background:new 0 0 81.7 72.3;" xml:space="preserve">
<g>
	<g>
		<circle style="fill:#00AFE5;" cx="-54.8" cy="-57.5" r="12.1"/>
		<g>
			<circle style="fill:#00AFE5;" cx="-55.4" cy="-22.3" r="3.2"/>
			<path style="fill:#00AFE5;" d="M-28-12.8V-18l-7.9-20h-37.8l-7.9,20v5.3h-6.3v5.3h66.2v-5.3H-28z M-73.7-32.8h37.8l-2.6,20h-32.6
				L-73.7-32.8z"/>
		</g>
	</g>
</g>
<g>
	<g>
		<path style="fill:#00AFE5;" d="M34.2,22.5h8.2V19v-4.8C39.4,15.7,36.5,18.5,34.2,22.5z"/>
		<path style="fill:#00AFE5;" d="M45,59v8.3c3.4-1.7,6.2-4.6,8.3-8.3L45,59L45,59z"/>
		<path style="fill:#00AFE5;" d="M49.8,67.3c5.5-1.3,10.5-4.2,14.1-8.3h-7.6C54.6,62.4,52.4,65.2,49.8,67.3z"/>
		<path style="fill:#00AFE5;" d="M45,14.2V19v3.5h8.2C50.9,18.5,47.9,15.7,45,14.2z"/>
		<path style="fill:#00AFE5;" d="M31.1,59h-7.6c3.7,4.1,8.6,7,14.1,8.3C35,65.2,32.8,62.4,31.1,59z"/>
		<path style="fill:#00AFE5;" d="M37.8,14.2c-5.6,1.2-10.6,4.2-14.3,8.3h7.8C33.1,19,35.3,16.2,37.8,14.2z"/>
		<path style="fill:#00AFE5;" d="M27.2,42.1H16.5c0.3,5.3,2,10.2,4.9,14.3h8.6C28.3,52.2,27.4,47.4,27.2,42.1z"/>
		<path style="fill:#00AFE5;" d="M42.4,67.3V59H34C36.2,62.7,39,65.6,42.4,67.3z"/>
		<path style="fill:#00AFE5;" d="M45,25.1v14.3h12.5c-0.2-5.6-1.3-10.4-3-14.3H45z"/>
		<rect x="34.7" y="1.9" style="fill:#00AFE5;" width="18" height="1.4"/>
		<path style="fill:#00AFE5;" d="M45,56.4h9.6c1.8-4.1,2.8-8.9,2.9-14.3H45V56.4z"/>
		<path style="fill:#00AFE5;" d="M29.9,39.4h12.5V25.1h-9.5C31.2,29,30,33.8,29.9,39.4z"/>
		<path style="fill:#00AFE5;" d="M32.7,56.4h9.6V42.1H29.8C30,47.5,31,52.3,32.7,56.4z"/>
		<path style="fill:#00AFE5;" d="M30.1,25.1h-8.7c-2.9,4.1-4.7,9-4.9,14.3h10.8C27.4,33.9,28.4,29.1,30.1,25.1z"/>
		<path style="fill:#00AFE5;" d="M57.4,56.4H66c2.9-4.1,4.7-9,4.9-14.3H60.1C60,47.4,59.1,52.2,57.4,56.4z"/>
		<path style="fill:#00AFE5;" d="M57.3,25.1c1.6,4,2.7,8.8,2.8,14.3h10.8c-0.3-5.3-2-10.2-4.9-14.3H57.3z"/>
		<path style="fill:#00AFE5;" d="M56.1,22.5h7.8c-3.7-4.1-8.7-7.1-14.3-8.4C52,16.2,54.3,19,56.1,22.5z"/>
		<rect x="74.9" y="62.4" style="fill:#00AFE5;" width="2.6" height="2.6"/>
		<rect x="76.2" y="47.2" style="fill:#00AFE5;" width="2.6" height="2.6"/>
		<rect x="9.9" y="21.6" style="fill:#00AFE5;" width="2.6" height="2.6"/>
		<path style="fill:#00AFE5;" d="M77.5,14.2c0.6,0,1.1-0.5,1.1-1.2c0-0.6-0.4-1.2-1-1.2c-0.2,0-3.8-0.6-4.2-4.1
			c-0.1-0.6-0.6-1.1-1.2-1.1c-0.6,0-1.1,0.5-1.2,1.1c0,0.2-0.4,3.9-4.1,4.1c-0.6,0-1.1,0.6-1.1,1.2c0,0.6,0.5,1.2,1.1,1.2
			c0.2,0,3.8,0.5,4.1,4.1c0,0.6,0.5,1.1,1.2,1.1c0,0,0,0,0,0c0.6,0,1.1-0.4,1.2-1C73.4,18.3,74.1,14.4,77.5,14.2z M72.3,14.8
			c-0.5-0.7-1.1-1.3-1.8-1.7c0.7-0.5,1.3-1.2,1.7-1.8c0.5,0.7,1.1,1.3,1.8,1.7C73.3,13.4,72.8,14.1,72.3,14.8z"/>
		<path style="fill:#00AFE5;" d="M14.7,58.2c-0.2,0-3.8-0.5-4.2-4.1C10.4,53.4,10,53,9.3,53c-0.6,0-1.1,0.5-1.2,1.1
			c0,0.2-0.4,3.9-4.1,4.1c-0.6,0-1.1,0.6-1.1,1.2c0,0.6,0.5,1.2,1.1,1.2c0.4,0,3.9,0.5,4.1,4.1c0,0.6,0.5,1.1,1.2,1.1c0,0,0,0,0,0
			c0.6,0,1.1-0.4,1.2-1c0,0,0.6-4,4.1-4.2c0.6,0,1.1-0.5,1.1-1.2C15.8,58.8,15.3,58.3,14.7,58.2z M9.4,61.2
			c-0.5-0.7-1.1-1.3-1.8-1.7c0.7-0.5,1.3-1.2,1.7-1.8c0.5,0.7,1.1,1.3,1.8,1.7C10.4,59.8,9.8,60.5,9.4,61.2z"/>
		<path style="fill:#00AFE5;" d="M45,5.9h-2.6v5c0.4,0,0.9,0,1.3,0c0.4,0,0.9,0,1.3,0L45,5.9L45,5.9z"/>
	</g>
</g>
<g>
	<circle style="fill:#00AFE5;" cx="158" cy="38.1" r="10.2"/>
	<path style="fill:#00AFE5;" d="M168.5,46c-2.4,3.2-6.2,5.3-10.4,5.3s-8.1-2.1-10.4-5.3c-4.3,3.2-7,8.3-7,14v2.9
		c0,3.2,2.6,5.8,5.8,5.8h23.3c3.2,0,5.8-2.6,5.8-5.8V60C175.5,54.2,172.8,49.2,168.5,46z"/>
	<circle style="fill:#00AFE5;" cx="158" cy="14.8" r="10.2"/>
	<circle style="fill:#00AFE5;" cx="181.4" cy="23.5" r="10.2"/>
	<path style="fill:#00AFE5;" d="M191.8,31.4c-2.4,3.2-6.2,5.3-10.4,5.3c-4.3,0-8.1-2.1-10.4-5.3c-0.4,0.3-0.8,0.6-1.1,1
		c0.9,1.7,1.4,3.7,1.4,5.8c0,1.9-0.4,3.7-1.2,5.3l0.2,0.2c3.6,2.7,6.1,6.4,7.3,10.5H193c3.2,0,5.8-2.6,5.8-5.8v-2.9
		C198.9,39.7,196.1,34.6,191.8,31.4z"/>
	<circle style="fill:#00AFE5;" cx="134.7" cy="23.5" r="10.2"/>
	<path style="fill:#00AFE5;" d="M145.9,43.6l0.2-0.2c-0.7-1.6-1.2-3.4-1.2-5.4c0-2.1,0.5-4,1.4-5.8c-0.4-0.3-0.7-0.7-1.1-1
		c-2.4,3.2-6.2,5.3-10.4,5.3s-8.1-2.1-10.4-5.3c-4.3,3.2-7,8.3-7,14v2.9c0,3.2,2.6,5.8,5.8,5.8h15.4C139.7,50,142.3,46.3,145.9,43.6
		z"/>
</g>
</svg>
