<?xml version="1.0" encoding="utf-8"?>
<!-- Generator: Adobe Illustrator 23.1.1, SVG Export Plug-In . SVG Version: 6.00 Build 0)  -->
<svg version="1.0" id="Layer_1" xmlns="http://www.w3.org/2000/svg" xmlns:xlink="http://www.w3.org/1999/xlink" x="0px" y="0px"
	 viewBox="0 0 115.2 98.9" style="enable-background:new 0 0 115.2 98.9;" xml:space="preserve">
<g>
	<g>
		<path style="fill:#00AFE5;" d="M29.9,30.8c-14.4,0-25.8,10.6-26.3,11.1c-0.5,0.5-0.8,1.2-0.8,2s0.3,1.4,0.8,2
			c0.5,0.5,11.9,11.1,26.3,11.1c14.4,0,25.8-10.6,26.3-11.1c0.5-0.5,0.8-1.2,0.8-2c0-0.7-0.3-1.4-0.8-2
			C55.8,41.4,44.4,30.8,29.9,30.8z M29.9,51.5c-8.7,0-16.5-4.8-20.2-7.6c3.8-2.8,11.5-7.6,20.2-7.6c8.7,0,16.5,4.8,20.2,7.6
			C46.4,46.7,38.7,51.5,29.9,51.5z"/>
		<path style="fill:#00AFE5;" d="M22.9,43.9c0,3.9,3.2,7.1,7.1,7.1c3.9,0,7.1-3.2,7.1-7.1c0-3.9-3.2-7.1-7.1-7.1
			C26,36.8,22.9,39.9,22.9,43.9z M31.7,43.9c0,0.9-0.8,1.7-1.7,1.7c-0.9,0-1.7-0.8-1.7-1.7c0-0.9,0.8-1.7,1.7-1.7
			C30.9,42.1,31.7,42.9,31.7,43.9z"/>
		<path style="fill:#00AFE5;" d="M88.3,30.8c-14.4,0-25.8,10.6-26.3,11.1c-0.5,0.5-0.8,1.2-0.8,2c0,0.7,0.3,1.4,0.8,2
			c0.5,0.5,11.9,11.1,26.3,11.1c14.4,0,25.8-10.6,26.3-11.1c0.5-0.5,0.8-1.2,0.8-2c0-0.7-0.3-1.4-0.8-2
			C114.1,41.4,102.7,30.8,88.3,30.8z M88.3,51.5c-8.7,0-16.5-4.8-20.2-7.6c3.7-2.8,11.4-7.6,20.2-7.6c8.7,0,16.5,4.8,20.2,7.6
			C104.8,46.7,97.1,51.5,88.3,51.5z"/>
		<path style="fill:#00AFE5;" d="M81.2,43.9c0,3.9,3.2,7.1,7.1,7.1c3.9,0,7.1-3.2,7.1-7.1c0-3.9-3.2-7.1-7.1-7.1
			C84.4,36.8,81.2,39.9,81.2,43.9z M88.3,42.1c0.9,0,1.7,0.8,1.7,1.7c0,0.9-0.8,1.7-1.7,1.7c-0.9,0-1.7-0.8-1.7-1.7
			C86.6,42.9,87.4,42.1,88.3,42.1z"/>
	</g>
</g>
<g>
	<g>
		<path style="fill:#00AFE5;" d="M204,112.1L204,112.1c0-0.1-0.1-0.2-0.3-0.2s-0.3,0-0.3,0.1v0.1c0,0.1,0,0.1,0.1,0.1l0.1,0.1
			c0,0,0,0,0,0v0.2c0,0,0,0,0,0l0.1,0c0,0,0,0,0,0v-0.2c0,0,0,0,0,0l0.2-0.2C204,112.2,204,112.1,204,112.1z M203.8,112.1
			c-0.1,0-0.2,0-0.2-0.1l0,0c0,0,0.1-0.1,0.2-0.1s0.2,0,0.2,0.1C204,112,203.9,112.1,203.8,112.1z"/>
		<path style="fill:#00AFE5;" d="M203.9,112.4C203.9,112.4,203.9,112.4,203.9,112.4C203.9,112.4,203.9,112.4,203.9,112.4l0.1,0.1
			c0,0,0,0,0,0s0,0,0,0H203.9z"/>
		<path style="fill:#00AFE5;" d="M204,112.5h-0.1c0,0,0,0,0,0s0,0,0,0L204,112.5C204.1,112.5,204.1,112.5,204,112.5
			C204.1,112.5,204.1,112.5,204,112.5z"/>
		<path style="fill:#00AFE5;" d="M204,112.6h-0.1c0,0,0,0,0,0c0,0,0,0,0,0L204,112.6C204.1,112.6,204.1,112.6,204,112.6
			C204.1,112.6,204.1,112.6,204,112.6z"/>
	</g>
	<g>
		<path style="fill:#00AFE5;" d="M48.7,40.6c-0.1,0-0.1,0-0.1,0.1l-0.1,0.4c0,0,0,0,0,0h0c0,0,0,0,0,0l0-0.5c0-0.1,0-0.1-0.1-0.1
			c-0.1,0-0.1,0-0.1,0.1l0,0.5c0,0,0,0,0,0s0,0,0,0l0-0.6c0-0.1,0-0.1-0.1-0.1c-0.1,0-0.1,0-0.1,0.1l0,0.6c0,0,0,0,0,0h0
			c0,0,0,0,0,0l-0.1-0.5c0-0.1-0.1-0.1-0.1-0.1c-0.1,0-0.1,0.1-0.1,0.1c0,0,0.1,0.4,0.1,0.5c0,0.1,0,0.1,0,0.2c0,0,0,0.1-0.1,0
			c0,0-0.1-0.1-0.1-0.1c0,0-0.1-0.1-0.1,0c-0.1,0-0.1,0.1,0,0.1c0,0,0.2,0.3,0.3,0.5c0,0,0.1,0.1,0.1,0.1c0,0.1,0,0.1,0,0.2v0.7
			c0,0,0,0.1,0.1,0.1h0.5c0,0,0.1,0,0.1-0.1V42c0-0.1,0-0.2,0-0.2c0.1-0.1,0.1-0.2,0.1-0.3c0-0.2,0.1-0.8,0.1-0.8
			C48.8,40.6,48.7,40.6,48.7,40.6z"/>
		<path style="fill:#00AFE5;" d="M47.2,41.1c0,0-0.1,0-0.1,0c0,0-0.1,0.1-0.1,0.1c0,0-0.1,0-0.1,0c0-0.1,0-0.1,0-0.2
			c0-0.1,0.1-0.5,0.1-0.5c0-0.1,0-0.1-0.1-0.1c-0.1,0-0.1,0-0.1,0.1L46.7,41c0,0,0,0,0,0h0c0,0,0,0,0,0l0-0.6c0-0.1,0-0.1-0.1-0.1
			c-0.1,0-0.1,0-0.1,0.1l0,0.6c0,0,0,0,0,0s0,0,0,0l0-0.5c0-0.1,0-0.1-0.1-0.1c-0.1,0-0.1,0-0.1,0.1l0,0.5c0,0,0,0,0,0h0
			c0,0,0,0,0,0l-0.1-0.4c0-0.1-0.1-0.1-0.1-0.1c-0.1,0-0.1,0.1-0.1,0.1c0,0,0.1,0.6,0.1,0.8c0,0.1,0,0.3,0.1,0.3c0,0.1,0,0.2,0,0.2
			v0.7c0,0,0,0.1,0.1,0.1h0.5c0,0,0.1,0,0.1-0.1V42c0-0.1,0-0.1,0-0.2c0,0,0.1-0.1,0.1-0.1c0.1-0.1,0.3-0.5,0.3-0.5
			C47.3,41.2,47.3,41.2,47.2,41.1z"/>
	</g>
</g>
<g>
	<g>
		<path style="fill:#00AFE5;" d="M204,112.1L204,112.1c0-0.1-0.1-0.2-0.3-0.2s-0.3,0-0.3,0.1v0.1c0,0.1,0,0.1,0.1,0.1l0.1,0.1
			c0,0,0,0,0,0v0.2c0,0,0,0,0,0l0.1,0c0,0,0,0,0,0v-0.2c0,0,0,0,0,0l0.2-0.2C204,112.2,204,112.1,204,112.1z M203.8,112.1
			c-0.1,0-0.2,0-0.2-0.1l0,0c0,0,0.1-0.1,0.2-0.1s0.2,0,0.2,0.1C204,112,203.9,112.1,203.8,112.1z"/>
		<path style="fill:#00AFE5;" d="M203.9,112.4C203.9,112.4,203.9,112.4,203.9,112.4C203.9,112.4,203.9,112.4,203.9,112.4l0.1,0.1
			c0,0,0,0,0,0s0,0,0,0H203.9z"/>
		<path style="fill:#00AFE5;" d="M204,112.5h-0.1c0,0,0,0,0,0s0,0,0,0L204,112.5C204.1,112.5,204.1,112.5,204,112.5
			C204.1,112.5,204.1,112.5,204,112.5z"/>
		<path style="fill:#00AFE5;" d="M204,112.6h-0.1c0,0,0,0,0,0c0,0,0,0,0,0L204,112.6C204.1,112.6,204.1,112.6,204,112.6
			C204.1,112.6,204.1,112.6,204,112.6z"/>
	</g>
	<g>
		<path style="fill:#00AFE5;" d="M48.7,40.6c-0.1,0-0.1,0-0.1,0.1l-0.1,0.4c0,0,0,0,0,0h0c0,0,0,0,0,0l0-0.5c0-0.1,0-0.1-0.1-0.1
			c-0.1,0-0.1,0-0.1,0.1l0,0.5c0,0,0,0,0,0s0,0,0,0l0-0.6c0-0.1,0-0.1-0.1-0.1c-0.1,0-0.1,0-0.1,0.1l0,0.6c0,0,0,0,0,0h0
			c0,0,0,0,0,0l-0.1-0.5c0-0.1-0.1-0.1-0.1-0.1c-0.1,0-0.1,0.1-0.1,0.1c0,0,0.1,0.4,0.1,0.5c0,0.1,0,0.1,0,0.2c0,0,0,0.1-0.1,0
			c0,0-0.1-0.1-0.1-0.1c0,0-0.1-0.1-0.1,0c-0.1,0-0.1,0.1,0,0.1c0,0,0.2,0.3,0.3,0.5c0,0,0.1,0.1,0.1,0.1c0,0.1,0,0.1,0,0.2v0.7
			c0,0,0,0.1,0.1,0.1h0.5c0,0,0.1,0,0.1-0.1V42c0-0.1,0-0.2,0-0.2c0.1-0.1,0.1-0.2,0.1-0.3c0-0.2,0.1-0.8,0.1-0.8
			C48.8,40.6,48.7,40.6,48.7,40.6z"/>
		<path style="fill:#00AFE5;" d="M47.2,41.1c0,0-0.1,0-0.1,0c0,0-0.1,0.1-0.1,0.1c0,0-0.1,0-0.1,0c0-0.1,0-0.1,0-0.2
			c0-0.1,0.1-0.5,0.1-0.5c0-0.1,0-0.1-0.1-0.1c-0.1,0-0.1,0-0.1,0.1L46.7,41c0,0,0,0,0,0h0c0,0,0,0,0,0l0-0.6c0-0.1,0-0.1-0.1-0.1
			c-0.1,0-0.1,0-0.1,0.1l0,0.6c0,0,0,0,0,0s0,0,0,0l0-0.5c0-0.1,0-0.1-0.1-0.1c-0.1,0-0.1,0-0.1,0.1l0,0.5c0,0,0,0,0,0h0
			c0,0,0,0,0,0l-0.1-0.4c0-0.1-0.1-0.1-0.1-0.1c-0.1,0-0.1,0.1-0.1,0.1c0,0,0.1,0.6,0.1,0.8c0,0.1,0,0.3,0.1,0.3c0,0.1,0,0.2,0,0.2
			v0.7c0,0,0,0.1,0.1,0.1h0.5c0,0,0.1,0,0.1-0.1V42c0-0.1,0-0.1,0-0.2c0,0,0.1-0.1,0.1-0.1c0.1-0.1,0.3-0.5,0.3-0.5
			C47.3,41.2,47.3,41.2,47.2,41.1z"/>
	</g>
</g>
<g>
	<g>
		<path style="fill:#00AFE5;" d="M207.4,113.6L207.4,113.6c0-0.1-0.2-0.2-0.3-0.2s-0.3,0-0.3,0.1v0.1c0,0.1,0,0.1,0.1,0.2l0.2,0.2
			c0,0,0,0,0,0v0.2c0,0,0,0,0,0l0.1,0c0,0,0,0,0,0v-0.2c0,0,0,0,0,0l0.2-0.2C207.4,113.7,207.4,113.6,207.4,113.6z M207.1,113.6
			c-0.1,0-0.2,0-0.2-0.1l0,0c0,0,0.1-0.1,0.2-0.1s0.2,0,0.2,0.1C207.3,113.6,207.2,113.6,207.1,113.6z"/>
		<path style="fill:#00AFE5;" d="M207.3,113.9C207.2,113.9,207.2,113.9,207.3,113.9C207.2,114,207.2,114,207.3,113.9l0.1,0.1
			c0,0,0,0,0,0c0,0,0,0,0,0H207.3z"/>
		<path style="fill:#00AFE5;" d="M207.4,114h-0.1c0,0,0,0,0,0s0,0,0,0L207.4,114C207.4,114.1,207.4,114.1,207.4,114
			C207.4,114,207.4,114,207.4,114z"/>
		<path style="fill:#00AFE5;" d="M207.4,114.1h-0.1c0,0,0,0,0,0c0,0,0,0,0,0L207.4,114.1C207.4,114.2,207.4,114.2,207.4,114.1
			C207.4,114.1,207.4,114.1,207.4,114.1z"/>
	</g>
	<g>
		<path style="fill:#00AFE5;" d="M48.8,40.6c-0.1,0-0.1,0-0.1,0.1l-0.1,0.4c0,0,0,0,0,0h0c0,0,0,0,0,0l0-0.5c0-0.1,0-0.1-0.1-0.1
			c-0.1,0-0.1,0-0.1,0.1l0,0.5c0,0,0,0,0,0c0,0,0,0,0,0l0-0.6c0-0.1,0-0.1-0.1-0.1c-0.1,0-0.1,0-0.1,0.1l0,0.6c0,0,0,0,0,0h0
			c0,0,0,0,0,0l-0.1-0.5c0-0.1-0.1-0.1-0.1-0.1c-0.1,0-0.1,0.1-0.1,0.1c0,0,0.1,0.4,0.1,0.5c0,0.1,0,0.1,0,0.2c0,0,0,0.1-0.1,0
			c0,0-0.1-0.1-0.1-0.1c0,0-0.1-0.1-0.1,0c-0.1,0-0.1,0.1,0,0.2c0,0,0.2,0.3,0.3,0.5c0,0,0.1,0.1,0.1,0.1c0,0.1,0,0.1,0,0.2v0.7
			c0,0,0,0.1,0.1,0.1h0.5c0,0,0.1,0,0.1-0.1v-0.7c0-0.1,0-0.2,0-0.2c0.1-0.1,0.1-0.2,0.1-0.3c0-0.2,0.1-0.8,0.1-0.8
			C48.8,40.6,48.8,40.6,48.8,40.6z"/>
		<path style="fill:#00AFE5;" d="M47.2,41.1c0,0-0.1,0-0.1,0c0,0-0.1,0.1-0.1,0.1c0,0-0.1,0-0.1,0c0-0.1,0-0.1,0-0.2
			c0-0.1,0.1-0.5,0.1-0.5c0-0.1,0-0.1-0.1-0.1c-0.1,0-0.1,0-0.1,0.1l-0.1,0.5c0,0,0,0,0,0h0c0,0,0,0,0,0l0-0.6c0-0.1,0-0.1-0.1-0.1
			c-0.1,0-0.1,0-0.1,0.1l0,0.6c0,0,0,0,0,0c0,0,0,0,0,0l0-0.5c0-0.1,0-0.1-0.1-0.1c-0.1,0-0.1,0-0.1,0.1l0,0.5c0,0,0,0,0,0h0
			c0,0,0,0,0,0l-0.1-0.4c0-0.1-0.1-0.1-0.1-0.1c-0.1,0-0.1,0.1-0.1,0.1c0,0,0.1,0.6,0.1,0.8c0,0.1,0,0.3,0.1,0.3c0,0.1,0,0.2,0,0.2
			v0.7c0,0,0,0.1,0.1,0.1h0.5c0,0,0.1,0,0.1-0.1V42c0-0.1,0-0.1,0-0.2c0,0,0.1-0.1,0.1-0.1c0.1-0.1,0.3-0.5,0.3-0.5
			C47.3,41.2,47.3,41.2,47.2,41.1z"/>
	</g>
</g>
<g>
	<path style="fill:#00AFE5;" d="M197,21.7c-1.5-0.2-2.8,0.8-2.9,2.3l-1.4,11.8c-0.1,0.4-0.4,0.7-0.8,0.7h-0.1
		c-0.4,0-0.8-0.4-0.8-0.8l0.7-15.3c0.1-1.5-1.1-2.7-2.5-2.8c-1.5-0.1-2.7,1.1-2.8,2.5l-0.7,15.3c0,0.4-0.4,0.8-0.8,0.8
		c-0.4,0-0.7-0.3-0.8-0.8L183,17.7c-0.1-1.5-1.3-2.5-2.8-2.5c-1.5,0.1-2.5,1.3-2.5,2.8l1.1,17.1c0.1,0.5-0.3,0.9-0.8,0.8h-0.3
		c-0.4,0-0.7-0.3-0.8-0.7l-2.4-14c-0.2-1.5-1.6-2.4-3-2.1c-1.5,0.2-2.4,1.6-2.1,3c0,0,2.1,11.4,2.4,13.8c0.3,2.4,0.4,3.8,0.6,6
		c0.1,1.2-1,2-2.2,0.8c0,0-2.2-2.8-3.5-4.1c-1.3-1.3-2.7-1.8-4-1c-1.5,0.9-1.8,2.8-0.8,4.2c0,0,5.7,9.3,9.2,13.2
		c1.1,1.2,2.5,2.5,4,3.1l0.7,8.4c0.1,1.1,1,2,2.1,2h11.6c1.1,0,2.1-0.8,2.1-2l0.7-8.6c3.4-1.5,3.6-6.2,4.3-11.1
		c0.8-5.9,2.9-22.2,2.9-22.2C199.5,23.2,198.4,21.9,197,21.7z"/>
</g>
<g>
	<g>
		<path style="fill-rule:evenodd;clip-rule:evenodd;fill:#00AFE5;" d="M289.8,46.6c-14.7-5.1-27.7-5.7-39,0.8c-3,1.8-3.3,1.6,0.3,1
			c13.3-2.4,28.1,0.4,36.8,3.7C294.4,54.3,296.3,48.4,289.8,46.6L289.8,46.6z"/>
		<path style="fill-rule:evenodd;clip-rule:evenodd;fill:#00AFE5;" d="M311.4,46.6c14.7-5.1,27.7-5.7,39,0.8c3,1.8,3.3,1.6-0.3,1
			c-13.3-2.4-28.1,0.4-36.8,3.7C306.7,54.3,304.8,48.4,311.4,46.6L311.4,46.6z"/>
	</g>
</g>
<g>
	<title>smile</title>
	<desc>Created with Sketch.</desc>
	<g>
		<g>
			<path style="fill:none;stroke:#00AFE5;stroke-width:5;stroke-linecap:round;stroke-miterlimit:13.0435;" d="M42.4,149.3V165"/>
			<path style="fill:none;stroke:#00AFE5;stroke-width:5;stroke-linecap:round;stroke-miterlimit:13.0435;" d="M67.8,149.3V165"/>
			<path style="fill:none;stroke:#00AFE5;stroke-width:5;stroke-linecap:round;stroke-miterlimit:13.0435;" d="M29,186.6
				c0,0,10.8,14.4,25.8,14.7c7.8,0.2,17-3.9,25.8-14.7"/>
			<path style="fill:none;stroke:#00AFE5;stroke-width:5;stroke-linecap:round;stroke-miterlimit:13.0435;" d="M92.3,183.3
				c0,0-11.9,6.7-13.9-8"/>
			<path style="fill:none;stroke:#00AFE5;stroke-width:5;stroke-linecap:round;stroke-miterlimit:13.0435;" d="M30.9,175.3
				c0,0-0.2,13.7-13.9,8"/>
		</g>
	</g>
</g>
<g>
	<path style="fill:#00AFE5;" d="M225.2,201.3c-13.9,0-25.2-10.6-25.2-23.4c0-1.2,1-2.2,2.2-2.2s2.2,1,2.2,2.2
		c0,10.6,9.4,19.1,20.8,19.1c11.4,0,20.8-8.5,20.8-19.1c0-1.2,1-2.2,2.2-2.2s2.2,1,2.2,2.2C250.3,190.9,239.1,201.3,225.2,201.3z"/>
	<path style="fill:#00AFE5;" d="M214.4,161.7c-1.2,0-2.2-1-2.2-2.2c0-3.3-3-6.1-6.8-6.1s-6.8,2.7-6.8,6.1c0,1.2-1,2.2-2.2,2.2
		c-1.1,0-2.2-1-2.2-2.2c0-5.8,5-10.4,11.1-10.4s11.1,4.8,11.1,10.4C216.5,160.8,215.7,161.7,214.4,161.7z"/>
	<path style="fill:#00AFE5;" d="M253.9,161.7c-1.2,0-2.2-1-2.2-2.2c0-3.3-3-6.1-6.8-6.1c-3.8,0-6.8,2.7-6.8,6.1c0,1.2-1,2.2-2.2,2.2
		s-2.2-0.9-2.2-2.2c0-5.8,5-10.4,11.1-10.4c6.1,0,11.1,4.6,11.1,10.4C256.1,160.8,255.1,161.7,253.9,161.7z"/>
</g>
<g>
	<path style="fill:#00AFE5;" d="M364.7,186c1.9-6.1-10.2-24.9-10.2-24.9c-13.9-22.4-30.4-13.9-30.4-13.9c-2.7-0.7-8.7,1.9-8.7,1.9
		c-18.9,9.9-15.4,27.2-15.4,27.2c0.5,5-5.1,16-5.1,16c2.6-1.6,3.8-4.1,3.8-4.1c0.1,2.1-0.7,5.3-0.7,5.3c2.3-2.6,2.7-5.6,2.7-5.6
		c-0.2,5.5,3.3,10.3,3.3,10.3c-1.7-4.7-0.7-10.8-0.7-10.8c1.4,10.5,9.3,14.4,9.3,14.4c-2.3-2.7-2.6-8.2-2.6-8.2
		c1.3,4,5.1,7.1,5.1,7.1c-1.3-2-2.8-8.3-2.8-8.3c2.5,6.5,7.6,9.6,7.6,9.6c-6.8-5-8.5-22.6-8.8-27c0.4,3.6,2.9,7.1,2.9,7.1
		c-0.6-3.2,0.4-12.4,0.4-12.4c0.2,4.3,2,8,2,8c-1.1-3.4,1.5-8.5,1.5-8.5c1.7,2.3,3.3,10.8,3.3,10.8c1.2-2-0.2-9-1-12.3
		c2.1,7.3,7.3,12.6,7.3,12.6c-0.8-1.8-1.3-4.4-1.3-4.4c0.7,3.4,3.9,5.7,3.9,5.7c-1-2.2-0.7-7.5-0.7-7.5c1,2.2,1,4.6,1,4.6
		c1.9-3.5,0.4-11.8,0.4-11.8c2.8,3.3,4.4,10.3,4.4,10.3c2-3.7,0.2-11.2,0.2-11.2c3.6,4.3,7,14.8,7,14.8c2.8-2.6,2.3-7.6,2.3-7.6
		c4.1,18.4-3.6,24.2-3.6,24.2c1.7-0.7,5.5-4.9,5.5-4.9c1.4,2.2-0.9,5.4-0.9,5.4c4.3-2.1,6-6.2,6-6.2c2.1,1.3,1.1,3.5,1.1,3.5
		c3.5-2.4,1.5-7.3,1.5-7.3c2.4,2.1,1.5,6.7,1.5,6.7c5.2-3.6,2.3-9.9,2.3-9.9c1.4,0.2,2.4,3.9,2.4,3.9c2-2.4-0.7-9.5-0.7-9.5
		C362,179.3,364.7,186,364.7,186z"/>
</g>
</svg>
