<?xml version="1.0" encoding="utf-8"?>
<!-- Generator: Adobe Illustrator 23.1.1, SVG Export Plug-In . SVG Version: 6.00 Build 0)  -->
<svg version="1.0" id="Layer_1" xmlns="http://www.w3.org/2000/svg" xmlns:xlink="http://www.w3.org/1999/xlink" x="0px" y="0px"
	 viewBox="0 0 114.6 101.8" style="enable-background:new 0 0 114.6 101.8;" xml:space="preserve">
<g>
	<title>Eyelash, eyes glue, fake eyes</title>
	<g>
		<g>
			<path style="fill:#EAEAEA;" d="M90.6,155.3c0-1.5-1.2-2.7-2.7-2.7H22.1c-1.5,0-2.7,1.2-2.7,2.7v24.7c0,1.5,1.2,2.7,2.7,2.7h65.7
				c1.5,0,2.7-1.2,2.7-2.7V155.3z M22.1,179.9v-24.7h65.7v24.7H22.1z M52.3,168.5c-0.1,0.3-0.4,0.5-0.6,0.5h-0.2l-3-1
				c-0.5,0.5-1.1,1-1.6,1.4l1.3,1.3c0.3,0.3,0.3,0.7,0,1c-0.3,0.3-0.7,0.3-1,0l-1.5-1.5c-0.7,0.4-1.4,0.7-2.1,0.9l0.6,1.2
				c0.2,0.3,0,0.7-0.3,0.9c-0.1,0-0.2,0.1-0.3,0.1c-0.3,0-0.5-0.1-0.6-0.4l-0.7-1.4c-0.9,0.2-1.8,0.3-2.7,0.4l0,0v1.4
				c0,0.4-0.3,0.7-0.7,0.7s-0.7-0.3-0.7-0.7v-1.4c-0.9,0-1.9-0.2-2.8-0.4l-0.7,1.4c-0.1,0.2-0.4,0.4-0.6,0.4c-0.1,0-0.2,0-0.3-0.1
				c-0.3-0.2-0.5-0.6-0.3-0.9l0.6-1.2c-0.7-0.2-1.5-0.5-2.1-0.9l-1.5,1.5c-0.3,0.3-0.7,0.3-1,0c-0.3-0.3-0.3-0.7,0-1l0,0l1.2-1.2
				c-0.6-0.4-1.2-0.9-1.7-1.4l-3,1h-0.2c-0.4,0.1-0.7-0.2-0.8-0.6s0.2-0.7,0.6-0.8l2.4-0.8c-0.4-0.5-0.7-1-0.9-1.5
				c-0.3-0.7,0.1-1.5,0.8-1.7c0.1,0,0.2-0.1,0.4-0.1l0,0c0.5,0,0.9,0.3,1.2,0.7c1.3,2.7,5,4.8,9.3,4.8s8.1-2,9.3-4.8
				c0.2-0.4,0.7-0.7,1.2-0.7l0,0c0.8,0,1.3,0.7,1.3,1.5c0,0.1,0,0.3-0.1,0.4c-0.2,0.5-0.5,1-0.9,1.5l2.5,0.8
				C52.2,167.7,52.4,168.1,52.3,168.5C52.3,168.5,52.3,168.5,52.3,168.5z M85.1,168.5c-0.1,0.3-0.4,0.5-0.6,0.5h-0.2l-3-1
				c-0.5,0.5-1.1,1-1.6,1.4l1.3,1.3c0.3,0.3,0.3,0.7,0,1c-0.3,0.3-0.7,0.3-1,0l-1.5-1.5c-0.7,0.4-1.4,0.7-2.1,0.9l0.6,1.2
				c0.2,0.3,0,0.7-0.3,0.9c-0.1,0-0.2,0.1-0.3,0.1c-0.3,0-0.5-0.1-0.6-0.4l-0.7-1.4c-0.9,0.2-1.8,0.3-2.7,0.4l0,0v1.4
				c0,0.4-0.3,0.7-0.7,0.7s-0.7-0.3-0.7-0.7v-1.4c-0.9,0-1.9-0.2-2.8-0.4l-0.7,1.4c-0.1,0.2-0.4,0.4-0.6,0.4c-0.1,0-0.2,0-0.3-0.1
				c-0.3-0.2-0.5-0.6-0.3-0.9l0.6-1.2c-0.7-0.2-1.5-0.5-2.1-0.9l-1.5,1.5c-0.3,0.3-0.7,0.3-1,0c-0.3-0.3-0.3-0.7,0-1l1.2-1.2
				c-0.6-0.4-1.2-0.9-1.7-1.4l-3,1h-0.2c-0.4,0.1-0.7-0.2-0.8-0.6c-0.1-0.4,0.2-0.7,0.6-0.8l2.4-0.8c-0.4-0.5-0.7-1-0.9-1.5
				c-0.3-0.7,0.1-1.5,0.8-1.7c0.1,0,0.2-0.1,0.4-0.1l0,0c0.5,0,0.9,0.3,1.2,0.7c1.3,2.7,5,4.8,9.3,4.8c4.4,0,8.1-2,9.3-4.8
				c0.2-0.4,0.7-0.7,1.2-0.7l0,0c0.8,0,1.3,0.7,1.3,1.5c0,0.1,0,0.3-0.1,0.4c-0.2,0.5-0.5,1-0.9,1.5l2.5,0.8
				C85.1,167.7,85.3,168.1,85.1,168.5C85.1,168.5,85.1,168.5,85.1,168.5z M96.1,149.8v42.5c0,1.5-1.2,2.7-2.7,2.7H38.6
				c-0.8,0-1.4-0.6-1.4-1.4c0-0.8,0.6-1.4,1.4-1.4h54.8v-42.5H16.7v42.5h8.2c0.8,0,1.4,0.6,1.4,1.4c0,0.8-0.6,1.4-1.4,1.4h-8.2
				c-1.5,0-2.7-1.2-2.7-2.7v-42.5c0-1.5,1.2-2.7,2.7-2.7h76.7C94.9,147,96.1,148.3,96.1,149.8z M34.5,195h-4.1
				c-0.8,0-1.4-0.6-1.4-1.4c0-0.8,0.6-1.4,1.4-1.4h4.1c0.8,0,1.4,0.6,1.4,1.4C35.8,194.4,35.2,195,34.5,195z M89.3,186.8
				c0.8,0,1.4,0.6,1.4,1.4c0,0.8-0.6,1.4-1.4,1.4H76.9c-0.8,0-1.4-0.6-1.4-1.4c0-0.8,0.6-1.4,1.4-1.4H89.3z M75.6,203.2h-5.8
				c-0.5-0.8-1.3-1.3-2.3-1.4l-32.9-1.3c-1.5-0.1-2.8,1.1-2.8,2.6c0,0,0,0,0,0v8.2c0,1.5,1.2,2.7,2.7,2.7h0.1l32.9-1.3l0,0
				c0.9,0,1.8-0.5,2.3-1.4h5.8c1.5,0,2.7-1.2,2.7-2.7v-2.8C78.3,204.4,77.1,203.2,75.6,203.2z M34.5,211.4v-8.2l5.5,0.2v3.9
				c0,0.8,0.6,1.4,1.4,1.4s1.4-0.6,1.4-1.4v-3.7h1.4v3.7c0,0.8,0.6,1.4,1.4,1.4c0.8,0,1.4-0.6,1.4-1.4v-3.6l20.5,0.8v5.5L34.5,211.4
				z M70.1,208.7v-2.7h5.5v2.7H70.1z"/>
		</g>
	</g>
</g>
<g>
	<g>
		<g>
			<path style="fill:#EAEAEA;" d="M222.2,204.2c0-1.1-0.4-2.2-1-3.1l-8.5-12.7c-1.3-1.8-3.4-2.9-5.7-2.9h-12.5v-7.9
				c0-0.7-0.5-1.1-1.3-1.1s-1.3,0.5-1.3,1.1v29.9h-50.6v-29.9c0-0.7-0.5-1.1-1.3-1.1c-0.8,0-1.3,0.5-1.3,1.1c0,29.1,0,47.7,0,50.5
				c0,0.7,0.5,1.1,1.3,1.1h13.3c-0.5,5.2,3.9,9.6,9.6,9.6s10.2-4.5,9.6-9.6h21.5c-0.4,5.2,4.2,9.6,9.8,9.6c5.7,0,10.2-4.5,9.6-9.6
				h7.4c0.8,0,1.3-0.5,1.3-1.1C222.2,205.6,222.2,226.2,222.2,204.2z M207.1,187.7c1.4,0,2.8,0.7,3.5,1.8l8.5,12.7
				c0.4,0.6,0.6,1.3,0.6,1.9v10.5h-25.1v-27H207.1z M192.1,209.6v4.9h-50.6v-4.9H192.1z M163.1,236.5c-3.9,0-7.2-2.9-7.2-6.5
				c0-3.5,3.2-6.5,7.2-6.5c3.9,0,7.2,2.9,7.2,6.5C170.2,233.7,167.1,236.5,163.1,236.5z M203.9,236.5c-3.9,0-7.2-2.9-7.2-6.5
				c0-3.5,3.2-6.5,7.2-6.5c3.9,0,7.2,2.9,7.2,6.5C211.1,233.7,207.8,236.5,203.9,236.5z M219.7,226.9H213c-1.4-3.3-4.9-5.6-9.1-5.6
				c-4.2,0-7.7,2.3-9.1,5.6h-22.7c-1.4-3.3-4.9-5.6-9.1-5.6c-4.2,0-7.7,2.3-9.1,5.6h-12.5v-10h78.3V226.9z"/>
		</g>
		<g>
			<path style="fill:#EAEAEA;" d="M200.5,204.3h12.6l0,0c0.8,0,1.3-0.5,1.3-1.1c0-0.3-0.1-0.6-0.4-0.8l-6.2-9
				c-0.6-0.9-1.8-1.5-2.9-1.5h-4.5c-0.8,0-1.3,0.5-1.3,1.1V203C199.2,203.7,199.8,204.3,200.5,204.3z M201.8,194.1h3.3
				c0.3,0,0.6,0.1,0.8,0.3l5,7.4h-9.1C201.8,201.9,201.8,194.1,201.8,194.1z"/>
		</g>
		<g>
			<path style="fill:#EAEAEA;" d="M145,179.1h0.8v23.8c0,0.7,0.6,1.4,1.5,1.4h39.5c0.8,0,1.5-0.6,1.5-1.4v-23.8h0.8
				c0.8,0,1.5-0.6,1.5-1.4v-6.3c0-0.7-0.6-1.4-1.5-1.4h-8.2c0.3-0.6,0.4-1.1,0.4-1.8c-0.5-5.3-8.7-6.8-11.7-2.3l-2.4,3.4l-2.4-3.4
				c-3.2-4.5-11.2-3-11.7,2.3c-0.1,0.7,0.1,1.3,0.4,1.8H145c-0.8,0-1.5,0.6-1.5,1.4v6.4C143.4,178.5,144.1,179.1,145,179.1z
				 M185.7,202h-37.5v-22.9h37.4V202H185.7z M171.5,167.2c1.9-2.6,6.8-1.7,7.2,1.3c0.1,0.8-0.6,1.6-1.8,1.6h-7.4L171.5,167.2z
				 M155.3,168.4c0.3-3.1,5.3-4,7.2-1.3l2,2.9h-7.3C156.1,170,155.2,169.4,155.3,168.4z M146,172.3c5.2,0,37.6,0,42,0v4.5
				c-14.9,0-27.4,0-42,0V172.3z"/>
		</g>
		<g>
			<polygon style="fill:#EAEAEA;" points="154.6,191.3 158.1,191.3 158.1,189.8 154.6,189.8 154.6,188.4 158.2,188.4 158.2,187 
				152.8,187 152.8,194.1 154.6,194.1 			"/>
		</g>
		<g>
			<path style="fill:#EAEAEA;" d="M161.5,191.8h1.3l1.8,2.3h2.1l-2-2.5c1-0.3,1.5-1,1.5-2.2c0-1.9-1.3-2.4-3.4-2.4h-3v7.2h1.8V191.8
				z M161.5,188.4h1.3c1,0,1.5,0.1,1.5,1s-0.5,1.1-1.5,1.1h-1.3V188.4z"/>
		</g>
		<g>
			<polygon style="fill:#EAEAEA;" points="173.7,192.7 169.7,192.7 169.7,191.2 173.2,191.2 173.2,189.8 169.7,189.8 169.7,188.4 
				173.6,188.4 173.6,187 167.9,187 167.9,194.1 173.7,194.1 			"/>
		</g>
		<g>
			<polygon style="fill:#EAEAEA;" points="181.2,192.7 177.2,192.7 177.2,191.2 180.7,191.2 180.7,189.8 177.2,189.8 177.2,188.4 
				181.1,188.4 181.1,187 175.4,187 175.4,194.1 181.2,194.1 			"/>
		</g>
	</g>
</g>
<g>
	<title>Box</title>
	
		<rect x="-75.2" y="250" style="fill:#00AFE5;stroke:#FCFCFC;stroke-width:0.25;stroke-miterlimit:10;" width="86.6" height="22.5"/>
	
		<rect x="-70.9" y="277.3" style="fill:#00AFE5;stroke:#FCFCFC;stroke-width:0.25;stroke-miterlimit:10;" width="78" height="48.5"/>
</g>
<g>
	<g>
		<path style="fill:#FFFFFF;" d="M62.5,51.1c-4.8,0-6.4,4.3-6.4,4.3s-1.6-4.3-6.4-4.3c-4.8,0-7.7,4.6-7.7,8.4c0,6.3,14.2,16,14.2,16
			s14.2-9.7,14.2-16C70.2,55.7,67.3,51.1,62.5,51.1z"/>
	</g>
</g>
<rect x="251.7" y="108.2" style="fill:#FFFFFF;stroke:#FCFCFC;stroke-width:0.25;stroke-miterlimit:10;" width="44.6" height="38.5"/>
<g>
	<title>Bigdark_v2</title>
	<path style="fill:#00AFE5;stroke:#FCFCFC;stroke-width:0.25;stroke-miterlimit:10;" d="M341.9,138.6l-13-17
		c-0.3-0.4-0.7-0.6-1.2-0.6h-13.6c-0.2,0-0.3-0.1-0.3-0.3V106c0-0.8-0.6-1.4-1.4-1.4c0,0,0,0,0,0h-72.6c-0.8,0-1.4,0.6-1.4,1.4
		c0,0,0,0,0,0v55.6c0,0.8,0.6,1.4,1.4,1.4c0,0,0,0,0,0h5.8c0.7,0,1.3-0.5,1.4-1.2c0.7-7.4,7.2-12.8,14.6-12.1
		c6.4,0.6,11.5,5.7,12.1,12.1c0.1,0.7,0.7,1.2,1.4,1.2h24.8c0.7,0,1.3-0.5,1.4-1.2c0.7-7.4,7.1-12.8,14.5-12.2
		c6.5,0.6,11.6,5.7,12.2,12.2c0.1,0.7,0.7,1.2,1.4,1.2h11.4c0.8,0,1.4-0.6,1.4-1.4v0v-22.2C342.2,139.2,342.1,138.9,341.9,138.6z
		 M276.3,141.7c-7.7,0-14-6.3-14-14c0-7.7,6.3-14,14-14s14,6.3,14,14c0,0,0,0,0,0C290.3,135.5,284,141.7,276.3,141.7z M337.1,139.2
		h-22.7c-0.2,0-0.3-0.2-0.3-0.3c0,0,0,0,0,0v-13.1c0-0.2,0.2-0.3,0.3-0.3h12.4c0.2,0,0.3,0.1,0.4,0.2l10.1,13
		c0.1,0.2,0.1,0.4-0.1,0.5C337.3,139.2,337.2,139.2,337.1,139.2z M282.7,120l3.5,3.4l-12.9,12.4l-7-6.6l3.5-3.4l3.5,3.3L282.7,120z
		 M323.1,163c0,4.6-3.7,8.4-8.4,8.4c-4.6,0-8.4-3.7-8.4-8.4c0-4.6,3.7-8.4,8.4-8.4c0,0,0,0,0,0C319.3,154.7,323,158.4,323.1,163
		L323.1,163z M268.8,163c0,4.6-3.7,8.4-8.4,8.4c-4.6,0-8.4-3.7-8.4-8.4s3.7-8.4,8.4-8.4c0,0,0,0,0,0
		C265.1,154.7,268.8,158.4,268.8,163L268.8,163z"/>
</g>
<rect x="33.4" y="27.7" style="fill:#FFFFFF;" width="42.7" height="43.4"/>
<g>
	<path style="fill:#00AFE5;" d="M96.4,59.1c-1.8-2.8-3.6-5.5-5.4-8.2c-0.4-0.6-0.4-1,0-1.6c1.8-2.7,3.5-5.4,5.3-8
		c2.1-3.2,1-6.2-2.6-7.5c-3-1.1-6-2.3-8.9-3.4c-0.6-0.2-0.9-0.6-0.9-1.3c-0.1-3.3-0.3-6.5-0.5-9.7c-0.2-3.5-2.9-5.5-6.2-4.6
		c-3.2,0.8-6.3,1.7-9.4,2.6c-0.7,0.2-1.1,0-1.6-0.5c-2-2.6-4.1-5.1-6.1-7.5c-2.2-2.8-5.6-2.8-7.8,0c-2,2.5-4.1,5-6,7.4
		c-0.5,0.7-1,0.8-1.8,0.6c-3.1-0.9-6.1-1.7-8.3-2.3c-4.3-1-6.8,0.7-7,4.3c-0.2,3.3-0.4,6.5-0.5,9.9c0,0.7-0.3,1-0.9,1.3
		c-3.1,1.2-6.1,2.4-9.2,3.6c-3.2,1.3-4.2,4.4-2.3,7.2c1.8,2.8,3.6,5.5,5.4,8.2c0.4,0.6,0.4,1,0,1.7c-1.9,2.8-3.7,5.6-5.5,8.4
		c-1.7,2.7-0.6,5.9,2.4,7c3.1,1.2,6.2,2.4,9.3,3.6c0.7,0.2,0.9,0.6,0.9,1.3c0.1,3.2,0.5,6.2,0.5,9.4c0,3.2,2.8,6.1,6.6,4.9
		c3.1-1,6.1-1.7,9.2-2.6c0.6-0.2,1-0.1,1.4,0.5c2.1,2.6,4.1,5.1,6.1,7.6c2.3,2.8,5.6,2.8,7.7,0c2.1-2.6,4.1-5.1,6.1-7.6
		c0.4-0.5,0.7-0.7,1.4-0.5c3.2,0.9,6.3,1.7,9.5,2.6c3.3,0.9,6.1-1.1,6.1-4.5c0.2-3.3,0.4-6.5,0.5-9.9c0-0.8,0.4-1.1,1-1.3
		c3-1.1,6.1-2.3,9-3.5C97.3,65.1,98.3,61.9,96.4,59.1z M70.2,59c1.5,1.5,1.5,3.9,0,5.4c-0.7,0.7-1.7,1.1-2.7,1.1c-1,0-2-0.4-2.7-1.1
		l-7.7-7.7l-7.7,7.7c-0.7,0.7-1.7,1.1-2.7,1.1c-1,0-2-0.4-2.7-1.1c-1.5-1.5-1.5-3.9,0-5.4l7.7-7.7L44,43.5c-1.5-1.5-1.5-3.9,0-5.4
		s3.9-1.5,5.4,0l7.7,7.7l7.7-7.7c1.5-1.5,3.9-1.5,5.4,0c1.5,1.5,1.5,3.9,0,5.4l-7.7,7.7L70.2,59z"/>
</g>
</svg>
