<svg version="1.0" id="Layer_1" xmlns="http://www.w3.org/2000/svg" xmlns:xlink="http://www.w3.org/1999/xlink" x="0px" y="0px"
	 viewBox="0 0 88.5 69.5" style="enable-background:new 0 0 88.5 69.5;" xml:space="preserve">
<g>
	<g>
		<circle style="fill:#00AFE5;" cx="-171.5" cy="-61.1" r="12.1"/>
		<g>
			<circle style="fill:#00AFE5;" cx="-172" cy="-25.9" r="3.2"/>
			<path style="fill:#00AFE5;" d="M-144.7-16.4v-5.3l-7.9-20h-37.8l-7.9,20v5.3h-6.3v5.3h66.2v-5.3H-144.7z M-190.4-36.4h37.8
				l-2.6,20h-32.6L-190.4-36.4z"/>
		</g>
	</g>
</g>
<g>
	<g>
		<path style="fill:#00AFE5;" d="M-62.3-55.8h8.2v-3.5v-4.8C-57.1-62.6-60.1-59.8-62.3-55.8z"/>
		<path style="fill:#00AFE5;" d="M-51.6-19.3v8.3c3.4-1.7,6.2-4.6,8.3-8.3L-51.6-19.3L-51.6-19.3z"/>
		<path style="fill:#00AFE5;" d="M-46.8-11c5.5-1.3,10.5-4.2,14.1-8.3h-7.6C-42-16-44.2-13.1-46.8-11z"/>
		<path style="fill:#00AFE5;" d="M-51.6-64.2v4.8v3.5h8.2C-45.7-59.8-48.6-62.6-51.6-64.2z"/>
		<path style="fill:#00AFE5;" d="M-65.4-19.3h-7.6c3.7,4.1,8.6,7,14.1,8.3C-61.6-13.1-63.8-16-65.4-19.3z"/>
		<path style="fill:#00AFE5;" d="M-58.8-64.2c-5.6,1.2-10.6,4.2-14.3,8.3h7.8C-63.5-59.4-61.2-62.2-58.8-64.2z"/>
		<path style="fill:#00AFE5;" d="M-69.3-36.3h-10.8c0.3,5.3,2,10.2,4.9,14.3h8.6C-68.2-26.1-69.2-31-69.3-36.3z"/>
		<path style="fill:#00AFE5;" d="M-54.2-11v-8.3h-8.3C-60.4-15.6-57.6-12.7-54.2-11z"/>
		<path style="fill:#00AFE5;" d="M-51.6-53.2v14.3H-39c-0.2-5.6-1.3-10.4-3-14.3H-51.6z"/>
		<rect x="-61.9" y="-76.5" style="fill:#00AFE5;" width="18" height="1.4"/>
		<path style="fill:#00AFE5;" d="M-51.6-22h9.6c1.8-4.1,2.8-8.9,2.9-14.3h-12.5V-22z"/>
		<path style="fill:#00AFE5;" d="M-66.7-38.9h12.5v-14.3h-9.5C-65.4-49.3-66.5-44.5-66.7-38.9z"/>
		<path style="fill:#00AFE5;" d="M-63.8-22h9.6v-14.3h-12.5C-66.6-30.9-65.6-26-63.8-22z"/>
		<path style="fill:#00AFE5;" d="M-66.5-53.2h-8.7c-2.9,4.1-4.7,9-4.9,14.3h10.8C-69.2-44.4-68.1-49.2-66.5-53.2z"/>
		<path style="fill:#00AFE5;" d="M-39.1-22h8.6c2.9-4.1,4.7-9,4.9-14.3h-10.8C-36.6-31-37.5-26.1-39.1-22z"/>
		<path style="fill:#00AFE5;" d="M-39.3-53.2c1.6,4,2.7,8.8,2.8,14.3h10.8c-0.3-5.3-2-10.2-4.9-14.3H-39.3z"/>
		<path style="fill:#00AFE5;" d="M-40.4-55.8h7.8c-3.7-4.1-8.7-7.1-14.3-8.4C-44.5-62.2-42.3-59.4-40.4-55.8z"/>
		<rect x="-21.7" y="-16" style="fill:#00AFE5;" width="2.6" height="2.6"/>
		<rect x="-20.4" y="-31.1" style="fill:#00AFE5;" width="2.6" height="2.6"/>
		<rect x="-86.7" y="-56.8" style="fill:#00AFE5;" width="2.6" height="2.6"/>
		<path style="fill:#00AFE5;" d="M-19-64.2c0.6,0,1.1-0.5,1.1-1.2s-0.4-1.2-1-1.2c-0.2,0-3.8-0.6-4.2-4.1c-0.1-0.6-0.6-1.1-1.2-1.1
			c-0.6,0-1.1,0.5-1.2,1.1c0,0.2-0.4,3.9-4.1,4.1c-0.6,0-1.1,0.6-1.1,1.2c0,0.6,0.5,1.2,1.1,1.2c0.2,0,3.8,0.5,4.1,4.1
			c0,0.6,0.5,1.1,1.2,1.1c0,0,0,0,0,0c0.6,0,1.1-0.4,1.2-1C-23.1-60-22.5-64-19-64.2z M-24.2-63.6c-0.5-0.7-1.1-1.3-1.8-1.7
			c0.7-0.5,1.3-1.2,1.7-1.8c0.5,0.7,1.1,1.3,1.8,1.7C-23.2-64.9-23.8-64.3-24.2-63.6z"/>
		<path style="fill:#00AFE5;" d="M-81.9-20.2c-0.2,0-3.8-0.5-4.2-4.1c-0.1-0.6-0.6-1.1-1.2-1.1c-0.6,0-1.1,0.5-1.2,1.1
			c0,0.2-0.4,3.9-4.1,4.1c-0.6,0-1.1,0.6-1.1,1.2c0,0.6,0.5,1.2,1.1,1.2c0.4,0,3.9,0.5,4.1,4.1c0,0.6,0.5,1.1,1.2,1.1c0,0,0,0,0,0
			c0.6,0,1.1-0.4,1.2-1c0,0,0.6-4,4.1-4.2c0.6,0,1.1-0.5,1.1-1.2S-81.3-20.1-81.9-20.2z M-87.2-17.2c-0.5-0.7-1.1-1.3-1.8-1.7
			c0.7-0.5,1.3-1.2,1.7-1.8c0.5,0.7,1.1,1.3,1.8,1.7C-86.1-18.5-86.7-17.8-87.2-17.2z"/>
		<path style="fill:#00AFE5;" d="M-51.6-72.4h-2.6v5c0.4,0,0.9,0,1.3,0c0.4,0,0.9,0,1.3,0L-51.6-72.4L-51.6-72.4z"/>
	</g>
</g>
<g>
	<circle style="fill:#00AFE5;" cx="43.7" cy="36.2" r="10.2"/>
	<path style="fill:#00AFE5;" d="M54.1,44.1c-2.4,3.2-6.2,5.3-10.4,5.3s-8.1-2.1-10.4-5.3c-4.3,3.2-7,8.3-7,14V61
		c0,3.2,2.6,5.8,5.8,5.8h23.3c3.2,0,5.8-2.6,5.8-5.8v-2.9C61.2,52.3,58.4,47.3,54.1,44.1z"/>
	<circle style="fill:#00AFE5;" cx="43.7" cy="12.9" r="10.2"/>
	<circle style="fill:#00AFE5;" cx="67" cy="21.6" r="10.2"/>
	<path style="fill:#00AFE5;" d="M77.4,29.5c-2.4,3.2-6.2,5.3-10.4,5.3s-8.1-2.1-10.4-5.3c-0.4,0.3-0.8,0.6-1.1,1
		c0.9,1.7,1.4,3.7,1.4,5.8c0,1.9-0.4,3.7-1.2,5.3l0.2,0.2c3.6,2.7,6.1,6.4,7.3,10.5h15.4c3.2,0,5.8-2.6,5.8-5.8v-2.9
		C84.5,37.8,81.7,32.7,77.4,29.5z"/>
	<circle style="fill:#00AFE5;" cx="20.4" cy="21.6" r="10.2"/>
	<path style="fill:#00AFE5;" d="M31.5,41.7l0.2-0.2c-0.7-1.6-1.2-3.4-1.2-5.4c0-2.1,0.5-4,1.4-5.8c-0.4-0.3-0.7-0.7-1.1-1
		c-2.4,3.2-6.2,5.3-10.4,5.3s-8.1-2.1-10.4-5.3c-4.3,3.2-7,8.3-7,14v2.9c0,3.2,2.6,5.8,5.8,5.8h15.4C25.4,48.1,27.9,44.4,31.5,41.7z
		"/>
</g>
</svg>
