<?xml version="1.0" encoding="utf-8"?>
<!-- Generator: Adobe Illustrator 23.1.1, SVG Export Plug-In . SVG Version: 6.00 Build 0)  -->
<svg version="1.0" id="Layer_1" xmlns="http://www.w3.org/2000/svg" xmlns:xlink="http://www.w3.org/1999/xlink" x="0px" y="0px"
	 viewBox="0 0 114.6 101.8" style="enable-background:new 0 0 114.6 101.8;" xml:space="preserve">
<g>
	<title>Eyelash, eyes glue, fake eyes</title>
	<g>
		<g>
			<path style="fill:#EAEAEA;" d="M90.6,155.3c0-1.5-1.2-2.7-2.7-2.7H22.1c-1.5,0-2.7,1.2-2.7,2.7v24.7c0,1.5,1.2,2.7,2.7,2.7h65.7
				c1.5,0,2.7-1.2,2.7-2.7V155.3z M22.1,179.9v-24.7h65.7v24.7H22.1z M52.3,168.5c-0.1,0.3-0.4,0.5-0.6,0.5h-0.2l-3-1
				c-0.5,0.5-1.1,1-1.6,1.4l1.3,1.3c0.3,0.3,0.3,0.7,0,1c-0.3,0.3-0.7,0.3-1,0l-1.5-1.5c-0.7,0.4-1.4,0.7-2.1,0.9l0.6,1.2
				c0.2,0.3,0,0.7-0.3,0.9c-0.1,0-0.2,0.1-0.3,0.1c-0.3,0-0.5-0.1-0.6-0.4l-0.7-1.4c-0.9,0.2-1.8,0.3-2.7,0.4l0,0v1.4
				c0,0.4-0.3,0.7-0.7,0.7s-0.7-0.3-0.7-0.7v-1.4c-0.9,0-1.9-0.2-2.8-0.4l-0.7,1.4c-0.1,0.2-0.4,0.4-0.6,0.4c-0.1,0-0.2,0-0.3-0.1
				c-0.3-0.2-0.5-0.6-0.3-0.9l0.6-1.2c-0.7-0.2-1.5-0.5-2.1-0.9l-1.5,1.5c-0.3,0.3-0.7,0.3-1,0c-0.3-0.3-0.3-0.7,0-1l0,0l1.2-1.2
				c-0.6-0.4-1.2-0.9-1.7-1.4l-3,1h-0.2c-0.4,0.1-0.7-0.2-0.8-0.6s0.2-0.7,0.6-0.8l2.4-0.8c-0.4-0.5-0.7-1-0.9-1.5
				c-0.3-0.7,0.1-1.5,0.8-1.7c0.1,0,0.2-0.1,0.4-0.1l0,0c0.5,0,0.9,0.3,1.2,0.7c1.3,2.7,5,4.8,9.3,4.8s8.1-2,9.3-4.8
				c0.2-0.4,0.7-0.7,1.2-0.7l0,0c0.8,0,1.3,0.7,1.3,1.5c0,0.1,0,0.3-0.1,0.4c-0.2,0.5-0.5,1-0.9,1.5l2.5,0.8
				C52.2,167.7,52.4,168.1,52.3,168.5C52.3,168.5,52.3,168.5,52.3,168.5z M85.1,168.5c-0.1,0.3-0.4,0.5-0.6,0.5h-0.2l-3-1
				c-0.5,0.5-1.1,1-1.6,1.4l1.3,1.3c0.3,0.3,0.3,0.7,0,1c-0.3,0.3-0.7,0.3-1,0l-1.5-1.5c-0.7,0.4-1.4,0.7-2.1,0.9l0.6,1.2
				c0.2,0.3,0,0.7-0.3,0.9c-0.1,0-0.2,0.1-0.3,0.1c-0.3,0-0.5-0.1-0.6-0.4l-0.7-1.4c-0.9,0.2-1.8,0.3-2.7,0.4l0,0v1.4
				c0,0.4-0.3,0.7-0.7,0.7s-0.7-0.3-0.7-0.7v-1.4c-0.9,0-1.9-0.2-2.8-0.4l-0.7,1.4c-0.1,0.2-0.4,0.4-0.6,0.4c-0.1,0-0.2,0-0.3-0.1
				c-0.3-0.2-0.5-0.6-0.3-0.9l0.6-1.2c-0.7-0.2-1.5-0.5-2.1-0.9l-1.5,1.5c-0.3,0.3-0.7,0.3-1,0c-0.3-0.3-0.3-0.7,0-1l1.2-1.2
				c-0.6-0.4-1.2-0.9-1.7-1.4l-3,1h-0.2c-0.4,0.1-0.7-0.2-0.8-0.6c-0.1-0.4,0.2-0.7,0.6-0.8l2.4-0.8c-0.4-0.5-0.7-1-0.9-1.5
				c-0.3-0.7,0.1-1.5,0.8-1.7c0.1,0,0.2-0.1,0.4-0.1l0,0c0.5,0,0.9,0.3,1.2,0.7c1.3,2.7,5,4.8,9.3,4.8c4.4,0,8.1-2,9.3-4.8
				c0.2-0.4,0.7-0.7,1.2-0.7l0,0c0.8,0,1.3,0.7,1.3,1.5c0,0.1,0,0.3-0.1,0.4c-0.2,0.5-0.5,1-0.9,1.5l2.5,0.8
				C85.1,167.7,85.3,168.1,85.1,168.5C85.1,168.5,85.1,168.5,85.1,168.5z M96.1,149.8v42.5c0,1.5-1.2,2.7-2.7,2.7H38.6
				c-0.8,0-1.4-0.6-1.4-1.4c0-0.8,0.6-1.4,1.4-1.4h54.8v-42.5H16.7v42.5h8.2c0.8,0,1.4,0.6,1.4,1.4c0,0.8-0.6,1.4-1.4,1.4h-8.2
				c-1.5,0-2.7-1.2-2.7-2.7v-42.5c0-1.5,1.2-2.7,2.7-2.7h76.7C94.9,147,96.1,148.3,96.1,149.8z M34.5,195h-4.1
				c-0.8,0-1.4-0.6-1.4-1.4c0-0.8,0.6-1.4,1.4-1.4h4.1c0.8,0,1.4,0.6,1.4,1.4C35.8,194.4,35.2,195,34.5,195z M89.3,186.8
				c0.8,0,1.4,0.6,1.4,1.4c0,0.8-0.6,1.4-1.4,1.4H76.9c-0.8,0-1.4-0.6-1.4-1.4c0-0.8,0.6-1.4,1.4-1.4H89.3z M75.6,203.2h-5.8
				c-0.5-0.8-1.3-1.3-2.3-1.4l-32.9-1.3c-1.5-0.1-2.8,1.1-2.8,2.6c0,0,0,0,0,0v8.2c0,1.5,1.2,2.7,2.7,2.7h0.1l32.9-1.3l0,0
				c0.9,0,1.8-0.5,2.3-1.4h5.8c1.5,0,2.7-1.2,2.7-2.7v-2.8C78.3,204.4,77.1,203.2,75.6,203.2z M34.5,211.4v-8.2l5.5,0.2v3.9
				c0,0.8,0.6,1.4,1.4,1.4s1.4-0.6,1.4-1.4v-3.7h1.4v3.7c0,0.8,0.6,1.4,1.4,1.4c0.8,0,1.4-0.6,1.4-1.4v-3.6l20.5,0.8v5.5L34.5,211.4
				z M70.1,208.7v-2.7h5.5v2.7H70.1z"/>
		</g>
	</g>
</g>
<g>
	<g>
		<g>
			<path style="fill:#EAEAEA;" d="M222.2,204.2c0-1.1-0.4-2.2-1-3.1l-8.5-12.7c-1.3-1.8-3.4-2.9-5.7-2.9h-12.5v-7.9
				c0-0.7-0.5-1.1-1.3-1.1s-1.3,0.5-1.3,1.1v29.9h-50.6v-29.9c0-0.7-0.5-1.1-1.3-1.1c-0.8,0-1.3,0.5-1.3,1.1c0,29.1,0,47.7,0,50.5
				c0,0.7,0.5,1.1,1.3,1.1h13.3c-0.5,5.2,3.9,9.6,9.6,9.6s10.2-4.5,9.6-9.6h21.5c-0.4,5.2,4.2,9.6,9.8,9.6c5.7,0,10.2-4.5,9.6-9.6
				h7.4c0.8,0,1.3-0.5,1.3-1.1C222.2,205.6,222.2,226.2,222.2,204.2z M207.1,187.7c1.4,0,2.8,0.7,3.5,1.8l8.5,12.7
				c0.4,0.6,0.6,1.3,0.6,1.9v10.5h-25.1v-27H207.1z M192.1,209.6v4.9h-50.6v-4.9H192.1z M163.1,236.5c-3.9,0-7.2-2.9-7.2-6.5
				c0-3.5,3.2-6.5,7.2-6.5c3.9,0,7.2,2.9,7.2,6.5C170.2,233.7,167.1,236.5,163.1,236.5z M203.9,236.5c-3.9,0-7.2-2.9-7.2-6.5
				c0-3.5,3.2-6.5,7.2-6.5c3.9,0,7.2,2.9,7.2,6.5C211.1,233.7,207.8,236.5,203.9,236.5z M219.7,226.9H213c-1.4-3.3-4.9-5.6-9.1-5.6
				c-4.2,0-7.7,2.3-9.1,5.6h-22.7c-1.4-3.3-4.9-5.6-9.1-5.6c-4.2,0-7.7,2.3-9.1,5.6h-12.5v-10h78.3V226.9z"/>
		</g>
		<g>
			<path style="fill:#EAEAEA;" d="M200.5,204.3h12.6l0,0c0.8,0,1.3-0.5,1.3-1.1c0-0.3-0.1-0.6-0.4-0.8l-6.2-9
				c-0.6-0.9-1.8-1.5-2.9-1.5h-4.5c-0.8,0-1.3,0.5-1.3,1.1V203C199.2,203.7,199.8,204.3,200.5,204.3z M201.8,194.1h3.3
				c0.3,0,0.6,0.1,0.8,0.3l5,7.4h-9.1C201.8,201.9,201.8,194.1,201.8,194.1z"/>
		</g>
		<g>
			<path style="fill:#EAEAEA;" d="M145,179.1h0.8v23.8c0,0.7,0.6,1.4,1.5,1.4h39.5c0.8,0,1.5-0.6,1.5-1.4v-23.8h0.8
				c0.8,0,1.5-0.6,1.5-1.4v-6.3c0-0.7-0.6-1.4-1.5-1.4h-8.2c0.3-0.6,0.4-1.1,0.4-1.8c-0.5-5.3-8.7-6.8-11.7-2.3l-2.4,3.4l-2.4-3.4
				c-3.2-4.5-11.2-3-11.7,2.3c-0.1,0.7,0.1,1.3,0.4,1.8H145c-0.8,0-1.5,0.6-1.5,1.4v6.4C143.4,178.5,144.1,179.1,145,179.1z
				 M185.7,202h-37.5v-22.9h37.4V202H185.7z M171.5,167.2c1.9-2.6,6.8-1.7,7.2,1.3c0.1,0.8-0.6,1.6-1.8,1.6h-7.4L171.5,167.2z
				 M155.3,168.4c0.3-3.1,5.3-4,7.2-1.3l2,2.9h-7.3C156.1,170,155.2,169.4,155.3,168.4z M146,172.3c5.2,0,37.6,0,42,0v4.5
				c-14.9,0-27.4,0-42,0V172.3z"/>
		</g>
		<g>
			<polygon style="fill:#EAEAEA;" points="154.6,191.3 158.1,191.3 158.1,189.8 154.6,189.8 154.6,188.4 158.2,188.4 158.2,187 
				152.8,187 152.8,194.1 154.6,194.1 			"/>
		</g>
		<g>
			<path style="fill:#EAEAEA;" d="M161.5,191.8h1.3l1.8,2.3h2.1l-2-2.5c1-0.3,1.5-1,1.5-2.2c0-1.9-1.3-2.4-3.4-2.4h-3v7.2h1.8V191.8
				z M161.5,188.4h1.3c1,0,1.5,0.1,1.5,1s-0.5,1.1-1.5,1.1h-1.3V188.4z"/>
		</g>
		<g>
			<polygon style="fill:#EAEAEA;" points="173.7,192.7 169.7,192.7 169.7,191.2 173.2,191.2 173.2,189.8 169.7,189.8 169.7,188.4 
				173.6,188.4 173.6,187 167.9,187 167.9,194.1 173.7,194.1 			"/>
		</g>
		<g>
			<polygon style="fill:#EAEAEA;" points="181.2,192.7 177.2,192.7 177.2,191.2 180.7,191.2 180.7,189.8 177.2,189.8 177.2,188.4 
				181.1,188.4 181.1,187 175.4,187 175.4,194.1 181.2,194.1 			"/>
		</g>
	</g>
</g>
<g>
	<title>Box</title>
	
		<rect x="245.5" y="-32.3" style="fill:#00AFE5;stroke:#FCFCFC;stroke-width:0.25;stroke-miterlimit:10;" width="86.6" height="22.5"/>
	<rect x="249.8" y="-6.1" style="fill:#00AFE5;stroke:#FCFCFC;stroke-width:0.25;stroke-miterlimit:10;" width="78" height="48.5"/>
</g>
<g>
	<g>
		<path style="fill:#FFFFFF;" d="M296.3,3.1c-5.9,0-7.9,5.2-7.9,5.2s-2-5.2-7.9-5.2c-5.9,0-9.5,5.6-9.5,10.3
			c0,7.8,17.4,19.6,17.4,19.6s17.4-11.9,17.4-19.6C305.8,8.8,302.2,3.1,296.3,3.1z"/>
	</g>
</g>
<rect x="20.1" y="22" style="fill:#FFFFFF;stroke:#FCFCFC;stroke-width:0.25;stroke-miterlimit:10;" width="44.6" height="38.5"/>
<g>
	<title>Bigdark_v2</title>
	<path style="fill:#00AFE5;stroke:#FCFCFC;stroke-width:0.25;stroke-miterlimit:10;" d="M110.3,52.4l-13-17
		c-0.3-0.4-0.7-0.6-1.2-0.6H82.6c-0.2,0-0.3-0.1-0.3-0.3V19.8c0-0.8-0.6-1.4-1.4-1.4c0,0,0,0,0,0H8.3c-0.8,0-1.4,0.6-1.4,1.4
		c0,0,0,0,0,0v55.6c0,0.8,0.6,1.4,1.4,1.4c0,0,0,0,0,0h5.8c0.7,0,1.3-0.5,1.4-1.2c0.7-7.4,7.2-12.8,14.6-12.1
		c6.4,0.6,11.5,5.7,12.1,12.1c0.1,0.7,0.7,1.2,1.4,1.2h24.8c0.7,0,1.3-0.5,1.4-1.2c0.7-7.4,7.1-12.8,14.5-12.2
		c6.5,0.6,11.6,5.7,12.2,12.2c0.1,0.7,0.7,1.2,1.4,1.2h11.4c0.8,0,1.4-0.6,1.4-1.4v0V53.3C110.6,52.9,110.5,52.6,110.3,52.4z
		 M44.7,55.5c-7.7,0-14-6.3-14-14c0-7.7,6.3-14,14-14c7.7,0,14,6.3,14,14c0,0,0,0,0,0C58.7,49.3,52.4,55.5,44.7,55.5z M105.5,53
		H82.8c-0.2,0-0.3-0.2-0.3-0.3c0,0,0,0,0,0V39.6c0-0.2,0.2-0.3,0.3-0.3h12.4c0.2,0,0.3,0.1,0.4,0.2l10.1,13c0.1,0.2,0.1,0.4-0.1,0.5
		C105.7,53,105.6,53,105.5,53z M51.1,33.8l3.5,3.4L41.7,49.6l-7-6.6l3.5-3.4l3.5,3.3L51.1,33.8z M91.5,76.8c0,4.6-3.7,8.4-8.4,8.4
		c-4.6,0-8.4-3.7-8.4-8.4c0-4.6,3.7-8.4,8.4-8.4c0,0,0,0,0,0C87.7,68.5,91.4,72.2,91.5,76.8L91.5,76.8z M37.2,76.8
		c0,4.6-3.7,8.4-8.4,8.4c-4.6,0-8.4-3.7-8.4-8.4c0-4.6,3.7-8.4,8.4-8.4c0,0,0,0,0,0C33.5,68.5,37.2,72.2,37.2,76.8L37.2,76.8z"/>
</g>
</svg>
