<?xml version="1.0" encoding="utf-8"?>
<!-- Generator: Adobe Illustrator 23.1.1, SVG Export Plug-In . SVG Version: 6.00 Build 0)  -->
<svg version="1.0" id="Layer_1" xmlns="http://www.w3.org/2000/svg" xmlns:xlink="http://www.w3.org/1999/xlink" x="0px" y="0px"
	 viewBox="0 0 115.2 98.9" style="enable-background:new 0 0 115.2 98.9;" xml:space="preserve">
<g>
	<g>
		<path style="fill:#00AFE5;" d="M204,112.1L204,112.1c0-0.1-0.1-0.2-0.3-0.2s-0.3,0-0.3,0.1v0.1c0,0.1,0,0.1,0.1,0.1l0.1,0.1
			c0,0,0,0,0,0v0.2c0,0,0,0,0,0l0.1,0c0,0,0,0,0,0v-0.2c0,0,0,0,0,0l0.2-0.2C204,112.2,204,112.1,204,112.1z M203.8,112.1
			c-0.1,0-0.2,0-0.2-0.1l0,0c0,0,0.1-0.1,0.2-0.1s0.2,0,0.2,0.1C204,112,203.9,112.1,203.8,112.1z"/>
		<path style="fill:#00AFE5;" d="M203.9,112.4C203.9,112.4,203.9,112.4,203.9,112.4C203.9,112.4,203.9,112.4,203.9,112.4l0.1,0.1
			c0,0,0,0,0,0s0,0,0,0H203.9z"/>
		<path style="fill:#00AFE5;" d="M204,112.5h-0.1c0,0,0,0,0,0s0,0,0,0L204,112.5C204.1,112.5,204.1,112.5,204,112.5
			C204.1,112.5,204.1,112.5,204,112.5z"/>
		<path style="fill:#00AFE5;" d="M204,112.6h-0.1c0,0,0,0,0,0c0,0,0,0,0,0L204,112.6C204.1,112.6,204.1,112.6,204,112.6
			C204.1,112.6,204.1,112.6,204,112.6z"/>
	</g>
	<g>
		<path style="fill:#00AFE5;" d="M48.7,40.6c-0.1,0-0.1,0-0.1,0.1l-0.1,0.4c0,0,0,0,0,0h0c0,0,0,0,0,0l0-0.5c0-0.1,0-0.1-0.1-0.1
			c-0.1,0-0.1,0-0.1,0.1l0,0.5c0,0,0,0,0,0s0,0,0,0l0-0.6c0-0.1,0-0.1-0.1-0.1c-0.1,0-0.1,0-0.1,0.1l0,0.6c0,0,0,0,0,0h0
			c0,0,0,0,0,0l-0.1-0.5c0-0.1-0.1-0.1-0.1-0.1c-0.1,0-0.1,0.1-0.1,0.1c0,0,0.1,0.4,0.1,0.5c0,0.1,0,0.1,0,0.2c0,0,0,0.1-0.1,0
			c0,0-0.1-0.1-0.1-0.1c0,0-0.1-0.1-0.1,0c-0.1,0-0.1,0.1,0,0.1c0,0,0.2,0.3,0.3,0.5c0,0,0.1,0.1,0.1,0.1c0,0.1,0,0.1,0,0.2v0.7
			c0,0,0,0.1,0.1,0.1h0.5c0,0,0.1,0,0.1-0.1V42c0-0.1,0-0.2,0-0.2c0.1-0.1,0.1-0.2,0.1-0.3c0-0.2,0.1-0.8,0.1-0.8
			C48.8,40.6,48.7,40.6,48.7,40.6z"/>
		<path style="fill:#00AFE5;" d="M47.2,41.1c0,0-0.1,0-0.1,0c0,0-0.1,0.1-0.1,0.1c0,0-0.1,0-0.1,0c0-0.1,0-0.1,0-0.2
			c0-0.1,0.1-0.5,0.1-0.5c0-0.1,0-0.1-0.1-0.1c-0.1,0-0.1,0-0.1,0.1L46.7,41c0,0,0,0,0,0h0c0,0,0,0,0,0l0-0.6c0-0.1,0-0.1-0.1-0.1
			c-0.1,0-0.1,0-0.1,0.1l0,0.6c0,0,0,0,0,0s0,0,0,0l0-0.5c0-0.1,0-0.1-0.1-0.1c-0.1,0-0.1,0-0.1,0.1l0,0.5c0,0,0,0,0,0h0
			c0,0,0,0,0,0l-0.1-0.4c0-0.1-0.1-0.1-0.1-0.1c-0.1,0-0.1,0.1-0.1,0.1c0,0,0.1,0.6,0.1,0.8c0,0.1,0,0.3,0.1,0.3c0,0.1,0,0.2,0,0.2
			v0.7c0,0,0,0.1,0.1,0.1h0.5c0,0,0.1,0,0.1-0.1V42c0-0.1,0-0.1,0-0.2c0,0,0.1-0.1,0.1-0.1c0.1-0.1,0.3-0.5,0.3-0.5
			C47.3,41.2,47.3,41.2,47.2,41.1z"/>
	</g>
</g>
<g>
	<g>
		<path style="fill:#00AFE5;" d="M204,112.1L204,112.1c0-0.1-0.1-0.2-0.3-0.2s-0.3,0-0.3,0.1v0.1c0,0.1,0,0.1,0.1,0.1l0.1,0.1
			c0,0,0,0,0,0v0.2c0,0,0,0,0,0l0.1,0c0,0,0,0,0,0v-0.2c0,0,0,0,0,0l0.2-0.2C204,112.2,204,112.1,204,112.1z M203.8,112.1
			c-0.1,0-0.2,0-0.2-0.1l0,0c0,0,0.1-0.1,0.2-0.1s0.2,0,0.2,0.1C204,112,203.9,112.1,203.8,112.1z"/>
		<path style="fill:#00AFE5;" d="M203.9,112.4C203.9,112.4,203.9,112.4,203.9,112.4C203.9,112.4,203.9,112.4,203.9,112.4l0.1,0.1
			c0,0,0,0,0,0s0,0,0,0H203.9z"/>
		<path style="fill:#00AFE5;" d="M204,112.5h-0.1c0,0,0,0,0,0s0,0,0,0L204,112.5C204.1,112.5,204.1,112.5,204,112.5
			C204.1,112.5,204.1,112.5,204,112.5z"/>
		<path style="fill:#00AFE5;" d="M204,112.6h-0.1c0,0,0,0,0,0c0,0,0,0,0,0L204,112.6C204.1,112.6,204.1,112.6,204,112.6
			C204.1,112.6,204.1,112.6,204,112.6z"/>
	</g>
	<g>
		<path style="fill:#00AFE5;" d="M48.7,40.6c-0.1,0-0.1,0-0.1,0.1l-0.1,0.4c0,0,0,0,0,0h0c0,0,0,0,0,0l0-0.5c0-0.1,0-0.1-0.1-0.1
			c-0.1,0-0.1,0-0.1,0.1l0,0.5c0,0,0,0,0,0s0,0,0,0l0-0.6c0-0.1,0-0.1-0.1-0.1c-0.1,0-0.1,0-0.1,0.1l0,0.6c0,0,0,0,0,0h0
			c0,0,0,0,0,0l-0.1-0.5c0-0.1-0.1-0.1-0.1-0.1c-0.1,0-0.1,0.1-0.1,0.1c0,0,0.1,0.4,0.1,0.5c0,0.1,0,0.1,0,0.2c0,0,0,0.1-0.1,0
			c0,0-0.1-0.1-0.1-0.1c0,0-0.1-0.1-0.1,0c-0.1,0-0.1,0.1,0,0.1c0,0,0.2,0.3,0.3,0.5c0,0,0.1,0.1,0.1,0.1c0,0.1,0,0.1,0,0.2v0.7
			c0,0,0,0.1,0.1,0.1h0.5c0,0,0.1,0,0.1-0.1V42c0-0.1,0-0.2,0-0.2c0.1-0.1,0.1-0.2,0.1-0.3c0-0.2,0.1-0.8,0.1-0.8
			C48.8,40.6,48.7,40.6,48.7,40.6z"/>
		<path style="fill:#00AFE5;" d="M47.2,41.1c0,0-0.1,0-0.1,0c0,0-0.1,0.1-0.1,0.1c0,0-0.1,0-0.1,0c0-0.1,0-0.1,0-0.2
			c0-0.1,0.1-0.5,0.1-0.5c0-0.1,0-0.1-0.1-0.1c-0.1,0-0.1,0-0.1,0.1L46.7,41c0,0,0,0,0,0h0c0,0,0,0,0,0l0-0.6c0-0.1,0-0.1-0.1-0.1
			c-0.1,0-0.1,0-0.1,0.1l0,0.6c0,0,0,0,0,0s0,0,0,0l0-0.5c0-0.1,0-0.1-0.1-0.1c-0.1,0-0.1,0-0.1,0.1l0,0.5c0,0,0,0,0,0h0
			c0,0,0,0,0,0l-0.1-0.4c0-0.1-0.1-0.1-0.1-0.1c-0.1,0-0.1,0.1-0.1,0.1c0,0,0.1,0.6,0.1,0.8c0,0.1,0,0.3,0.1,0.3c0,0.1,0,0.2,0,0.2
			v0.7c0,0,0,0.1,0.1,0.1h0.5c0,0,0.1,0,0.1-0.1V42c0-0.1,0-0.1,0-0.2c0,0,0.1-0.1,0.1-0.1c0.1-0.1,0.3-0.5,0.3-0.5
			C47.3,41.2,47.3,41.2,47.2,41.1z"/>
	</g>
</g>
<g>
	<g>
		<path style="fill:#00AFE5;" d="M207.4,113.6L207.4,113.6c0-0.1-0.2-0.2-0.3-0.2s-0.3,0-0.3,0.1v0.1c0,0.1,0,0.1,0.1,0.2l0.2,0.2
			c0,0,0,0,0,0v0.2c0,0,0,0,0,0l0.1,0c0,0,0,0,0,0v-0.2c0,0,0,0,0,0l0.2-0.2C207.4,113.7,207.4,113.6,207.4,113.6z M207.1,113.6
			c-0.1,0-0.2,0-0.2-0.1l0,0c0,0,0.1-0.1,0.2-0.1s0.2,0,0.2,0.1C207.3,113.6,207.2,113.6,207.1,113.6z"/>
		<path style="fill:#00AFE5;" d="M207.3,113.9C207.2,113.9,207.2,113.9,207.3,113.9C207.2,114,207.2,114,207.3,113.9l0.1,0.1
			c0,0,0,0,0,0c0,0,0,0,0,0H207.3z"/>
		<path style="fill:#00AFE5;" d="M207.4,114h-0.1c0,0,0,0,0,0s0,0,0,0L207.4,114C207.4,114.1,207.4,114.1,207.4,114
			C207.4,114,207.4,114,207.4,114z"/>
		<path style="fill:#00AFE5;" d="M207.4,114.1h-0.1c0,0,0,0,0,0c0,0,0,0,0,0L207.4,114.1C207.4,114.2,207.4,114.2,207.4,114.1
			C207.4,114.1,207.4,114.1,207.4,114.1z"/>
	</g>
	<g>
		<path style="fill:#00AFE5;" d="M48.8,40.6c-0.1,0-0.1,0-0.1,0.1l-0.1,0.4c0,0,0,0,0,0h0c0,0,0,0,0,0l0-0.5c0-0.1,0-0.1-0.1-0.1
			c-0.1,0-0.1,0-0.1,0.1l0,0.5c0,0,0,0,0,0c0,0,0,0,0,0l0-0.6c0-0.1,0-0.1-0.1-0.1c-0.1,0-0.1,0-0.1,0.1l0,0.6c0,0,0,0,0,0h0
			c0,0,0,0,0,0l-0.1-0.5c0-0.1-0.1-0.1-0.1-0.1c-0.1,0-0.1,0.1-0.1,0.1c0,0,0.1,0.4,0.1,0.5c0,0.1,0,0.1,0,0.2c0,0,0,0.1-0.1,0
			c0,0-0.1-0.1-0.1-0.1c0,0-0.1-0.1-0.1,0c-0.1,0-0.1,0.1,0,0.2c0,0,0.2,0.3,0.3,0.5c0,0,0.1,0.1,0.1,0.1c0,0.1,0,0.1,0,0.2v0.7
			c0,0,0,0.1,0.1,0.1h0.5c0,0,0.1,0,0.1-0.1v-0.7c0-0.1,0-0.2,0-0.2c0.1-0.1,0.1-0.2,0.1-0.3c0-0.2,0.1-0.8,0.1-0.8
			C48.8,40.6,48.8,40.6,48.8,40.6z"/>
		<path style="fill:#00AFE5;" d="M47.2,41.1c0,0-0.1,0-0.1,0c0,0-0.1,0.1-0.1,0.1c0,0-0.1,0-0.1,0c0-0.1,0-0.1,0-0.2
			c0-0.1,0.1-0.5,0.1-0.5c0-0.1,0-0.1-0.1-0.1c-0.1,0-0.1,0-0.1,0.1l-0.1,0.5c0,0,0,0,0,0h0c0,0,0,0,0,0l0-0.6c0-0.1,0-0.1-0.1-0.1
			c-0.1,0-0.1,0-0.1,0.1l0,0.6c0,0,0,0,0,0c0,0,0,0,0,0l0-0.5c0-0.1,0-0.1-0.1-0.1c-0.1,0-0.1,0-0.1,0.1l0,0.5c0,0,0,0,0,0h0
			c0,0,0,0,0,0l-0.1-0.4c0-0.1-0.1-0.1-0.1-0.1c-0.1,0-0.1,0.1-0.1,0.1c0,0,0.1,0.6,0.1,0.8c0,0.1,0,0.3,0.1,0.3c0,0.1,0,0.2,0,0.2
			v0.7c0,0,0,0.1,0.1,0.1h0.5c0,0,0.1,0,0.1-0.1V42c0-0.1,0-0.1,0-0.2c0,0,0.1-0.1,0.1-0.1c0.1-0.1,0.3-0.5,0.3-0.5
			C47.3,41.2,47.3,41.2,47.2,41.1z"/>
	</g>
</g>
<g>
	<path style="fill:#00AFE5;" d="M83.3,17c-2.3-0.3-4.3,1.3-4.6,3.6l-2.2,18.5c-0.1,0.7-0.6,1.1-1.3,1.1h-0.1c-0.7,0-1.2-0.6-1.2-1.3
		L75,14.9c0.1-2.3-1.7-4.2-4-4.3c-2.3-0.1-4.2,1.7-4.3,4l-1.1,24.1c0,0.7-0.6,1.2-1.3,1.2c-0.6,0-1.1-0.5-1.2-1.2l-1.8-28
		c-0.2-2.3-2.1-4-4.4-3.9c-2.3,0.2-4,2.1-3.9,4.4L54.6,38c0.1,0.8-0.5,1.4-1.3,1.3h-0.4c-0.6,0-1.1-0.4-1.2-1.1l-3.8-22
		c-0.4-2.3-2.6-3.7-4.8-3.4c-2.3,0.4-3.8,2.6-3.4,4.8c0,0,3.3,17.9,3.8,21.7s0.7,6,0.9,9.5c0.1,1.9-1.5,3.2-3.4,1.3
		c0,0-3.5-4.3-5.6-6.4c-2-2.1-4.2-2.8-6.4-1.5c-2.3,1.4-2.8,4.4-1.3,6.5c0,0,8.9,14.7,14.5,20.8c1.8,1.9,3.9,3.9,6.3,4.9l1.1,13.2
		c0.2,1.8,1.6,3.1,3.4,3.1h18.2c1.8,0,3.3-1.3,3.4-3.1L75.7,74c5.3-2.4,5.7-9.8,6.7-17.5c1.3-9.4,4.6-35,4.6-35
		C87.2,19.3,85.6,17.2,83.3,17z"/>
</g>
<g>
	<g>
		<path style="fill-rule:evenodd;clip-rule:evenodd;fill:#00AFE5;" d="M163.9,50.6c-14.7-5.1-27.7-5.7-39,0.8c-3,1.8-3.3,1.6,0.3,1
			c13.3-2.4,28.1,0.4,36.8,3.7C168.6,58.4,170.5,52.4,163.9,50.6L163.9,50.6z"/>
		<path style="fill-rule:evenodd;clip-rule:evenodd;fill:#00AFE5;" d="M185.5,50.6c14.7-5.1,27.7-5.7,39,0.8c3,1.8,3.3,1.6-0.3,1
			c-13.3-2.4-28.1,0.4-36.8,3.7C180.8,58.4,178.9,52.4,185.5,50.6L185.5,50.6z"/>
	</g>
</g>
<g>
	<title>smile</title>
	<desc>Created with Sketch.</desc>
	<g>
		<g>
			<path style="fill:none;stroke:#00AFE5;stroke-width:5;stroke-linecap:round;stroke-miterlimit:13.0435;" d="M-83.5,153.3V169"/>
			<path style="fill:none;stroke:#00AFE5;stroke-width:5;stroke-linecap:round;stroke-miterlimit:13.0435;" d="M-58.1,153.3V169"/>
			<path style="fill:none;stroke:#00AFE5;stroke-width:5;stroke-linecap:round;stroke-miterlimit:13.0435;" d="M-96.9,190.6
				c0,0,10.8,14.4,25.8,14.7c7.8,0.2,17-3.9,25.8-14.7"/>
			<path style="fill:none;stroke:#00AFE5;stroke-width:5;stroke-linecap:round;stroke-miterlimit:13.0435;" d="M-33.6,187.3
				c0,0-11.9,6.7-13.9-8"/>
			<path style="fill:none;stroke:#00AFE5;stroke-width:5;stroke-linecap:round;stroke-miterlimit:13.0435;" d="M-94.9,179.3
				c0,0-0.2,13.7-13.9,8"/>
		</g>
	</g>
</g>
<g>
	<path style="fill:#00AFE5;" d="M99.3,205.3c-13.9,0-25.2-10.6-25.2-23.4c0-1.2,1-2.2,2.2-2.2s2.2,1,2.2,2.2
		c0,10.6,9.4,19.1,20.8,19.1s20.8-8.5,20.8-19.1c0-1.2,1-2.2,2.2-2.2s2.2,1,2.2,2.2C124.5,194.9,113.2,205.3,99.3,205.3z"/>
	<path style="fill:#00AFE5;" d="M88.5,165.7c-1.2,0-2.2-1-2.2-2.2c0-3.3-3-6.1-6.8-6.1s-6.8,2.7-6.8,6.1c0,1.2-1,2.2-2.2,2.2
		c-1.1,0-2.2-1-2.2-2.2c0-5.8,5-10.4,11.1-10.4c6.1,0,11.1,4.8,11.1,10.4C90.7,164.8,89.8,165.7,88.5,165.7z"/>
	<path style="fill:#00AFE5;" d="M128.1,165.7c-1.2,0-2.2-1-2.2-2.2c0-3.3-3-6.1-6.8-6.1s-6.8,2.7-6.8,6.1c0,1.2-1,2.2-2.2,2.2
		c-1.1,0-2.2-0.9-2.2-2.2c0-5.8,5-10.4,11.1-10.4s11.1,4.6,11.1,10.4C130.2,164.8,129.3,165.7,128.1,165.7z"/>
</g>
<g>
	<path style="fill:#00AFE5;" d="M238.8,190c1.9-6.1-10.2-24.9-10.2-24.9c-13.9-22.4-30.4-13.9-30.4-13.9c-2.7-0.7-8.7,1.9-8.7,1.9
		c-18.9,9.9-15.4,27.2-15.4,27.2c0.5,5-5.1,16-5.1,16c2.6-1.6,3.8-4.1,3.8-4.1c0.1,2.1-0.7,5.3-0.7,5.3c2.3-2.6,2.7-5.6,2.7-5.6
		c-0.2,5.5,3.3,10.3,3.3,10.3c-1.7-4.7-0.7-10.8-0.7-10.8c1.4,10.5,9.3,14.4,9.3,14.4c-2.3-2.7-2.6-8.2-2.6-8.2
		c1.3,4,5.1,7.1,5.1,7.1c-1.3-2-2.8-8.3-2.8-8.3c2.5,6.5,7.6,9.6,7.6,9.6c-6.8-5-8.5-22.6-8.8-27c0.4,3.6,2.9,7.1,2.9,7.1
		c-0.6-3.2,0.4-12.4,0.4-12.4c0.2,4.3,2,8,2,8c-1.1-3.4,1.5-8.5,1.5-8.5c1.7,2.3,3.3,10.8,3.3,10.8c1.2-2-0.2-9-1-12.3
		c2.1,7.3,7.3,12.6,7.3,12.6c-0.8-1.8-1.3-4.4-1.3-4.4c0.7,3.4,3.9,5.7,3.9,5.7c-1-2.2-0.7-7.5-0.7-7.5c1,2.2,1,4.6,1,4.6
		c1.9-3.5,0.4-11.8,0.4-11.8c2.8,3.3,4.4,10.3,4.4,10.3c2-3.7,0.2-11.2,0.2-11.2c3.6,4.3,7,14.8,7,14.8c2.8-2.6,2.3-7.6,2.3-7.6
		c4.1,18.4-3.6,24.2-3.6,24.2c1.7-0.7,5.5-4.9,5.5-4.9c1.4,2.2-0.9,5.4-0.9,5.4c4.3-2.1,6-6.2,6-6.2c2.1,1.3,1.1,3.5,1.1,3.5
		c3.5-2.4,1.5-7.3,1.5-7.3c2.4,2.1,1.5,6.7,1.5,6.7c5.2-3.6,2.3-9.9,2.3-9.9c1.4,0.2,2.4,3.9,2.4,3.9c2-2.4-0.7-9.5-0.7-9.5
		C236.1,183.3,238.8,190,238.8,190z"/>
</g>
</svg>
