<?xml version="1.0" encoding="utf-8"?>
<!-- Generator: Adobe Illustrator 23.1.1, SVG Export Plug-In . SVG Version: 6.00 Build 0)  -->
<svg version="1.0" id="Layer_1" xmlns="http://www.w3.org/2000/svg" xmlns:xlink="http://www.w3.org/1999/xlink" x="0px" y="0px"
	 viewBox="0 0 115.2 98.9" style="enable-background:new 0 0 115.2 98.9;" xml:space="preserve">
<g>
	<path style="fill:#00AFE5;" d="M-57.5,23.3c-2.3-0.3-4.3,1.3-4.6,3.6l-2.2,18.5c-0.1,0.7-0.6,1.1-1.3,1.1h-0.1
		c-0.7,0-1.2-0.6-1.2-1.3l1.1-24.1c0.1-2.3-1.7-4.2-4-4.3c-2.3-0.1-4.2,1.7-4.3,4l-1.1,24.1c0,0.7-0.6,1.2-1.3,1.2
		c-0.6,0-1.1-0.5-1.2-1.2l-1.8-28c-0.2-2.3-2.1-4-4.4-3.9c-2.3,0.2-4,2.1-3.9,4.4l1.7,26.8c0.1,0.8-0.5,1.4-1.3,1.3h-0.4
		c-0.6,0-1.1-0.4-1.2-1.1l-3.8-22c-0.4-2.3-2.6-3.7-4.8-3.4c-2.3,0.4-3.8,2.6-3.4,4.8c0,0,3.3,17.9,3.8,21.7c0.5,3.8,0.7,6,0.9,9.5
		c0.1,1.9-1.5,3.2-3.4,1.3c0,0-3.5-4.3-5.6-6.4s-4.2-2.8-6.4-1.5c-2.3,1.4-2.8,4.4-1.3,6.5c0,0,8.9,14.7,14.5,20.8
		c1.8,1.9,3.9,3.9,6.3,4.9l1.1,13.2c0.2,1.8,1.6,3.1,3.4,3.1h18.2c1.8,0,3.3-1.3,3.4-3.1l1.1-13.5c5.3-2.4,5.7-9.8,6.7-17.5
		c1.3-9.4,4.6-35,4.6-35C-53.6,25.6-55.2,23.6-57.5,23.3z"/>
</g>
<g>
	<g>
		<path style="fill-rule:evenodd;clip-rule:evenodd;fill:#00AFE5;" d="M72.5-64.5c-14.7-7.6-27.7-8.5-39,1.2c-3,2.6-3.3,2.4,0.3,1.4
			c13.3-3.6,28.1,0.6,36.8,5.6C77.2-53,79.1-61.9,72.5-64.5L72.5-64.5z"/>
		<path style="fill-rule:evenodd;clip-rule:evenodd;fill:#00AFE5;" d="M94.1-64.5c14.7-7.6,27.7-8.5,39,1.2c3,2.6,3.3,2.4-0.3,1.4
			c-13.3-3.6-28.1,0.6-36.8,5.6C89.4-53,87.6-61.9,94.1-64.5L94.1-64.5z"/>
	</g>
</g>
<g>
	<title>smile</title>
	<desc>Created with Sketch.</desc>
	<g>
		<g>
			<path style="fill:none;stroke:#00AFE5;stroke-width:5;stroke-linecap:round;stroke-miterlimit:13.0435;" d="M43.5,25.5v15.7"/>
			<path style="fill:none;stroke:#00AFE5;stroke-width:5;stroke-linecap:round;stroke-miterlimit:13.0435;" d="M69,25.5v15.7"/>
			<path style="fill:none;stroke:#00AFE5;stroke-width:5;stroke-linecap:round;stroke-miterlimit:13.0435;" d="M30.1,62.7
				c0,0,10.8,14.4,25.8,14.7c7.8,0.2,17-3.9,25.8-14.7"/>
			<path style="fill:none;stroke:#00AFE5;stroke-width:5;stroke-linecap:round;stroke-miterlimit:13.0435;" d="M93.4,59.4
				c0,0-11.9,6.7-13.9-8"/>
			<path style="fill:none;stroke:#00AFE5;stroke-width:5;stroke-linecap:round;stroke-miterlimit:13.0435;" d="M32.1,51.4
				c0,0-0.2,13.7-13.9,8"/>
		</g>
	</g>
</g>
<g>
	<path style="fill:#00AFE5;" d="M99.3,205.3c-13.9,0-25.2-10.6-25.2-23.4c0-1.2,1-2.2,2.2-2.2s2.2,1,2.2,2.2
		c0,10.6,9.4,19.1,20.8,19.1s20.8-8.5,20.8-19.1c0-1.2,1-2.2,2.2-2.2s2.2,1,2.2,2.2C124.5,194.9,113.2,205.3,99.3,205.3z"/>
	<path style="fill:#00AFE5;" d="M88.5,165.7c-1.2,0-2.2-1-2.2-2.2c0-3.3-3-6.1-6.8-6.1s-6.8,2.7-6.8,6.1c0,1.2-1,2.2-2.2,2.2
		c-1.1,0-2.2-1-2.2-2.2c0-5.8,5-10.4,11.1-10.4c6.1,0,11.1,4.8,11.1,10.4C90.7,164.8,89.8,165.7,88.5,165.7z"/>
	<path style="fill:#00AFE5;" d="M128.1,165.7c-1.2,0-2.2-1-2.2-2.2c0-3.3-3-6.1-6.8-6.1s-6.8,2.7-6.8,6.1c0,1.2-1,2.2-2.2,2.2
		c-1.1,0-2.2-0.9-2.2-2.2c0-5.8,5-10.4,11.1-10.4s11.1,4.6,11.1,10.4C130.2,164.8,129.3,165.7,128.1,165.7z"/>
</g>
<g>
	<path style="fill:#00AFE5;" d="M238.8,190c1.9-6.1-10.2-24.9-10.2-24.9c-13.9-22.4-30.4-13.9-30.4-13.9c-2.7-0.7-8.7,1.9-8.7,1.9
		c-18.9,9.9-15.4,27.2-15.4,27.2c0.5,5-5.1,16-5.1,16c2.6-1.6,3.8-4.1,3.8-4.1c0.1,2.1-0.7,5.3-0.7,5.3c2.3-2.6,2.7-5.6,2.7-5.6
		c-0.2,5.5,3.3,10.3,3.3,10.3c-1.7-4.7-0.7-10.8-0.7-10.8c1.4,10.5,9.3,14.4,9.3,14.4c-2.3-2.7-2.6-8.2-2.6-8.2
		c1.3,4,5.1,7.1,5.1,7.1c-1.3-2-2.8-8.3-2.8-8.3c2.5,6.5,7.6,9.6,7.6,9.6c-6.8-5-8.5-22.6-8.8-27c0.4,3.6,2.9,7.1,2.9,7.1
		c-0.6-3.2,0.4-12.4,0.4-12.4c0.2,4.3,2,8,2,8c-1.1-3.4,1.5-8.5,1.5-8.5c1.7,2.3,3.3,10.8,3.3,10.8c1.2-2-0.2-9-1-12.3
		c2.1,7.3,7.3,12.6,7.3,12.6c-0.8-1.8-1.3-4.4-1.3-4.4c0.7,3.4,3.9,5.7,3.9,5.7c-1-2.2-0.7-7.5-0.7-7.5c1,2.2,1,4.6,1,4.6
		c1.9-3.5,0.4-11.8,0.4-11.8c2.8,3.3,4.4,10.3,4.4,10.3c2-3.7,0.2-11.2,0.2-11.2c3.6,4.3,7,14.8,7,14.8c2.8-2.6,2.3-7.6,2.3-7.6
		c4.1,18.4-3.6,24.2-3.6,24.2c1.7-0.7,5.5-4.9,5.5-4.9c1.4,2.2-0.9,5.4-0.9,5.4c4.3-2.1,6-6.2,6-6.2c2.1,1.3,1.1,3.5,1.1,3.5
		c3.5-2.4,1.5-7.3,1.5-7.3c2.4,2.1,1.5,6.7,1.5,6.7c5.2-3.6,2.3-9.9,2.3-9.9c1.4,0.2,2.4,3.9,2.4,3.9c2-2.4-0.7-9.5-0.7-9.5
		C236.1,183.3,238.8,190,238.8,190z"/>
</g>
</svg>
