<svg version="1.0" id="Layer_1" xmlns="http://www.w3.org/2000/svg" xmlns:xlink="http://www.w3.org/1999/xlink" x="0px" y="0px"
	 viewBox="0 0 66.2 62" style="enable-background:new 0 0 66.2 62;" xml:space="preserve">
<g>
	<g>
		<circle style="fill:#00AFE5;" cx="33.1" cy="12.1" r="12.1"/>
		<g>
			<circle style="fill:#00AFE5;" cx="32.6" cy="47.3" r="3.2"/>
			<path style="fill:#00AFE5;" d="M59.9,56.7v-5.3l-7.9-20H14.2l-7.9,20v5.3H0V62h66.2v-5.3H59.9z M14.2,36.8H52l-2.6,20H16.8
				L14.2,36.8z"/>
		</g>
	</g>
</g>
<g>
	<g>
		<path style="fill:#00AFE5;" d="M137.1,20.8h8.2v-3.5v-4.8C142.3,14,139.4,16.8,137.1,20.8z"/>
		<path style="fill:#00AFE5;" d="M147.9,57.3v8.3c3.4-1.7,6.2-4.6,8.3-8.3L147.9,57.3L147.9,57.3z"/>
		<path style="fill:#00AFE5;" d="M152.6,65.6c5.5-1.3,10.5-4.2,14.1-8.3h-7.6C157.4,60.7,155.3,63.5,152.6,65.6z"/>
		<path style="fill:#00AFE5;" d="M147.9,12.5v4.8v3.5h8.2C153.7,16.8,150.8,14,147.9,12.5z"/>
		<path style="fill:#00AFE5;" d="M134,57.3h-7.6c3.7,4.1,8.6,7,14.1,8.3C137.8,63.5,135.7,60.7,134,57.3z"/>
		<path style="fill:#00AFE5;" d="M140.6,12.4c-5.6,1.2-10.6,4.2-14.3,8.3h7.8C135.9,17.2,138.2,14.5,140.6,12.4z"/>
		<path style="fill:#00AFE5;" d="M130.1,40.3h-10.8c0.3,5.3,2,10.2,4.9,14.3h8.6C131.2,50.5,130.2,45.6,130.1,40.3z"/>
		<path style="fill:#00AFE5;" d="M145.2,65.6v-8.3h-8.3C139,61,141.8,63.9,145.2,65.6z"/>
		<path style="fill:#00AFE5;" d="M147.9,23.4v14.3h12.5c-0.2-5.6-1.3-10.4-3-14.3H147.9z"/>
		<rect x="137.5" y="0.2" style="fill:#00AFE5;" width="18" height="1.4"/>
		<path style="fill:#00AFE5;" d="M147.9,54.7h9.6c1.8-4.1,2.8-8.9,2.9-14.3h-12.5V54.7z"/>
		<path style="fill:#00AFE5;" d="M132.7,37.7h12.5V23.4h-9.5C134,27.3,132.9,32.1,132.7,37.7z"/>
		<path style="fill:#00AFE5;" d="M135.6,54.7h9.6V40.3h-12.5C132.9,45.7,133.9,50.6,135.6,54.7z"/>
		<path style="fill:#00AFE5;" d="M132.9,23.4h-8.7c-2.9,4.1-4.7,9-4.9,14.3h10.8C130.3,32.2,131.3,27.4,132.9,23.4z"/>
		<path style="fill:#00AFE5;" d="M160.3,54.7h8.6c2.9-4.1,4.7-9,4.9-14.3H163C162.9,45.6,161.9,50.5,160.3,54.7z"/>
		<path style="fill:#00AFE5;" d="M160.2,23.4c1.6,4,2.7,8.8,2.8,14.3h10.8c-0.3-5.3-2-10.2-4.9-14.3H160.2z"/>
		<path style="fill:#00AFE5;" d="M159,20.8h7.8c-3.7-4.1-8.7-7.1-14.3-8.4C154.9,14.5,157.2,17.2,159,20.8z"/>
		<rect x="177.7" y="60.6" style="fill:#00AFE5;" width="2.6" height="2.6"/>
		<rect x="179" y="45.5" style="fill:#00AFE5;" width="2.6" height="2.6"/>
		<rect x="112.8" y="19.9" style="fill:#00AFE5;" width="2.6" height="2.6"/>
		<path style="fill:#00AFE5;" d="M180.4,12.4c0.6,0,1.1-0.5,1.1-1.2c0-0.6-0.4-1.2-1-1.2c-0.2,0-3.8-0.6-4.2-4.1
			c-0.1-0.6-0.6-1.1-1.2-1.1c-0.6,0-1.1,0.5-1.2,1.1c0,0.2-0.4,3.9-4.1,4.1c-0.6,0-1.1,0.6-1.1,1.2c0,0.6,0.5,1.2,1.1,1.2
			c0.2,0,3.8,0.5,4.1,4.1c0,0.6,0.5,1.1,1.2,1.1c0,0,0,0,0,0c0.6,0,1.1-0.4,1.2-1C176.3,16.6,177,12.7,180.4,12.4z M175.2,13
			c-0.5-0.7-1.1-1.3-1.8-1.7c0.7-0.5,1.3-1.2,1.7-1.8c0.5,0.7,1.1,1.3,1.8,1.7C176.2,11.7,175.6,12.3,175.2,13z"/>
		<path style="fill:#00AFE5;" d="M117.6,56.5c-0.2,0-3.8-0.5-4.2-4.1c-0.1-0.6-0.6-1.1-1.2-1.1c-0.6,0-1.1,0.5-1.2,1.1
			c0,0.2-0.4,3.9-4.1,4.1c-0.6,0-1.1,0.6-1.1,1.2s0.5,1.2,1.1,1.2c0.4,0,3.9,0.5,4.1,4.1c0,0.6,0.5,1.1,1.2,1.1c0,0,0,0,0,0
			c0.6,0,1.1-0.4,1.2-1c0,0,0.6-4,4.1-4.2c0.6,0,1.1-0.5,1.1-1.2C118.6,57.1,118.2,56.5,117.6,56.5z M112.3,59.5
			c-0.5-0.7-1.1-1.3-1.8-1.7c0.7-0.5,1.3-1.2,1.7-1.8c0.5,0.7,1.1,1.3,1.8,1.7C113.3,58.1,112.7,58.8,112.3,59.5z"/>
		<path style="fill:#00AFE5;" d="M147.9,4.2h-2.6v5c0.4,0,0.9,0,1.3,0c0.4,0,0.9,0,1.3,0L147.9,4.2L147.9,4.2z"/>
	</g>
</g>
<g>
	<circle style="fill:#00AFE5;" cx="260.9" cy="36.4" r="10.2"/>
	<path style="fill:#00AFE5;" d="M271.4,44.3c-2.4,3.2-6.2,5.3-10.4,5.3c-4.3,0-8.1-2.1-10.4-5.3c-4.3,3.2-7,8.3-7,14v2.9
		c0,3.2,2.6,5.8,5.8,5.8h23.3c3.2,0,5.8-2.6,5.8-5.8v-2.9C278.4,52.5,275.6,47.4,271.4,44.3z"/>
	<circle style="fill:#00AFE5;" cx="260.9" cy="13.1" r="10.2"/>
	<circle style="fill:#00AFE5;" cx="284.2" cy="21.8" r="10.2"/>
	<path style="fill:#00AFE5;" d="M294.7,29.7c-2.4,3.2-6.2,5.3-10.4,5.3c-4.3,0-8.1-2.1-10.4-5.3c-0.4,0.3-0.8,0.6-1.1,1
		c0.9,1.7,1.4,3.7,1.4,5.8c0,1.9-0.4,3.7-1.2,5.3l0.2,0.2c3.6,2.7,6.1,6.4,7.3,10.5h15.4c3.2,0,5.8-2.6,5.8-5.8v-2.9
		C301.7,37.9,298.9,32.9,294.7,29.7z"/>
	<circle style="fill:#00AFE5;" cx="237.6" cy="21.8" r="10.2"/>
	<path style="fill:#00AFE5;" d="M248.7,41.9l0.2-0.2c-0.7-1.6-1.2-3.4-1.2-5.4c0-2.1,0.5-4,1.4-5.8c-0.4-0.3-0.7-0.7-1.1-1
		c-2.4,3.2-6.2,5.3-10.4,5.3s-8.1-2.1-10.4-5.3c-4.3,3.2-7,8.3-7,14v2.9c0,3.2,2.6,5.8,5.8,5.8h15.4
		C242.6,48.3,245.1,44.6,248.7,41.9z"/>
</g>
</svg>
